<?xml version="1.0" encoding="UTF-8"?>
<!DOCTYPE svg PUBLIC "-//W3C//DTD SVG 1.1//EN" "http://www.w3.org/Graphics/SVG/1.1/DTD/svg11.dtd">
<!-- Creator: CorelDRAW 2021 (64-Bit) -->
<svg xmlns="http://www.w3.org/2000/svg" xml:space="preserve" width="1.54436in" height="0.650669in" version="1.1" style="shape-rendering:geometricPrecision; text-rendering:geometricPrecision; image-rendering:optimizeQuality; fill-rule:evenodd; clip-rule:evenodd"
viewBox="0 0 1544.36 650.67"
 xmlns:xlink="http://www.w3.org/1999/xlink"
 xmlns:xodm="http://www.corel.com/coreldraw/odm/2003">
 <defs>
  <style type="text/css">
   <![CDATA[
    .fil1 {fill:white;fill-rule:nonzero}
    .fil0 {fill:url(#id2)}
   ]]>
  </style>
     <clipPath id="id0">
      <path d="M-2.13 1.33l1541.59 0 4.74 650.67 -1541.59 0 -4.74 -650.67z"/>
     </clipPath>
     <clipPath id="id1">
      <path d="M-2.13 1.33l1541.59 0 4.74 650.67 -1541.59 0 -4.74 -650.67z"/>
     </clipPath>
  <linearGradient id="id2" gradientUnits="objectBoundingBox" x1="47.7008%" y1="8.68892%" x2="41.3636%" y2="86.9531%">
   <stop offset="0" style="stop-opacity:1; stop-color:#585522"/>
   <stop offset="1" style="stop-opacity:1; stop-color:#ACC714"/>
  </linearGradient>
 </defs>
 <g id="Layer_x0020_1">
  <metadata id="CorelCorpID_0Corel-Layer"/>
  <g id="_1867419049712">
   <g>
    <g style="clip-path:url(#id0)">
     <image x="-2.13" y="1.33" width="1546.33" height="650.67" xlink:href="crizbe Logo White_Images\crizbe Logo White_ImgID1.png"/>
    </g>
   </g>
   <path class="fil0" d="M672.46 201.23c-2.25,-6.39 -3.39,-13.22 -3.39,-20.31 0,-16.11 5.89,-30.86 17.29,-42.26 11.4,-11.4 26.15,-17.29 42.26,-17.29 16.11,0 30.86,5.89 42.26,17.29 11.4,11.41 17.29,26.16 17.29,42.26 0,16.11 -5.89,30.87 -17.3,42.27 -6.86,6.86 -14.93,11.72 -23.78,14.51 0.88,3.47 1.44,7.06 1.67,10.74l0.06 1.02 0 1.02c0,15.02 -4.68,29.58 -11.24,42.95 -1.53,3.11 -3.1,6.21 -4.71,9.3 0.22,-0.24 0.43,-0.48 0.65,-0.72 6.43,-10.34 12.57,-20.91 18.14,-31.74 6.08,-11.81 12.29,-23.57 18.76,-35.17 5.74,-10.3 12.24,-20.47 19.88,-29.47 9.28,-10.94 21.04,-19.04 35.1,-22.37 15.11,-3.58 30.64,-2.61 44.11,5.69 7.82,4.81 14.1,11.24 18.44,18.92 3.12,1.57 6.41,2.77 9.84,3.39 1.6,0.19 3.43,0.19 5,0.19 1.3,0 3.05,-0.44 4.28,-0.78 2.33,-0.65 4.89,-2.05 6.94,-3.3 3.02,-1.83 5.96,-4.84 8.26,-7.48 10.33,-11.87 23.98,-19.55 39.9,-20.06 13.13,-0.43 25.87,3.49 36.39,11.38 7.01,5.25 12.48,11.85 16.36,19.41 7.67,-13.16 15.22,-26.39 22.75,-39.63 9.52,-16.73 18.13,-35 23.01,-53.67 3.62,-13.85 12.12,-25.21 24.22,-32.83 13.1,-8.24 28.38,-10.27 43.09,-5.66 13.32,3.8 24.33,12.07 31.62,23.91 7.71,12.54 9.77,27.04 6.11,41.28 -3.93,15.32 -9.21,30.26 -15.53,44.75 13.88,6.94 25.66,16.71 34.56,29.39 3.89,2 7.95,3.69 12.06,5.15 6.71,2.38 13.63,4.06 20.7,4.92 5.05,0.62 10.11,0.66 15.15,0.05 11.66,-10.86 24.38,-20.52 38.15,-28.59 16.04,-9.4 33.45,-16.06 51.95,-18.47 20.07,-2.62 39.46,1.13 57.09,11.07 15.02,8.46 26.85,20.59 34.43,36.08 7.51,15.33 9.82,32.15 7.72,49 -0.2,2.21 -0.47,4.41 -0.81,6.6 8.37,-0.87 16.78,0.49 24.53,4.66 12.44,6.7 19.86,18.89 21.33,32.83 1.4,13.33 -3.57,25.47 -11.49,35.89 -25.86,35.27 -55.61,69.63 -89.93,96.94 -27.24,21.69 -59.44,40.04 -94.65,43.66 -3.64,0.54 -7.31,0.82 -10.99,0.82 -2.28,0 -4.56,0 -6.84,0 -26.14,0 -52.44,-5.88 -72.25,-23.95 -14.84,-13.54 -25.09,-30.42 -29.54,-50.02 -0.69,-3.06 -1.27,-6.13 -1.74,-9.22 -8.44,11.52 -17.71,22.43 -27.83,32.54 -13.55,13.55 -28.85,25.3 -45.97,33.99 -16.59,8.42 -34.38,13.24 -53.03,13.24 -22.36,0 -42.78,-7.37 -59.77,-21.87 -3.74,-3.06 -7.16,-6.31 -10.28,-9.74 -5.93,5.46 -12.23,10.49 -18.95,14.88 -14.25,9.31 -30.23,14.45 -47.28,14.45 -14.59,0 -28.83,-2.88 -42.11,-8.94 -9,-4.11 -17.84,-8.55 -26.54,-13.27 -1.66,-0.9 -3.32,-1.78 -5,-2.65 -0.18,0.35 -0.35,0.67 -0.51,0.98l-0.3 0.55c-5.69,10.43 -14.43,18.39 -25.13,23.53 -11.83,5.68 -24.86,6.98 -37.31,2.9 -12.93,-3.76 -23.69,-11.74 -31.08,-23.06 -0.78,-1.19 -1.51,-2.4 -2.18,-3.63 -1.48,1.25 -2.98,2.47 -4.5,3.68 -13.24,10.49 -28.11,18.44 -44.59,22.43 -20.03,4.83 -39.72,1.13 -57.11,-9.85 -5.19,-3.28 -9.96,-7.14 -14.35,-11.4 -0.03,0.03 -0.07,0.06 -0.1,0.09 -14.44,13.65 -32.06,23.78 -52.44,23.78 -18.73,0 -36.13,-5.95 -49.89,-18.7 -12.92,-11.32 -22.08,-25.63 -25.54,-42.57 -3.24,-15.87 -1.48,-32.3 2.81,-47.79 0.87,-3.13 1.82,-6.25 2.85,-9.35 -5.93,0.19 -11.86,-0.76 -17.54,-3.05 0.96,2.32 1.77,4.73 2.41,7.22 2.48,9.56 2.85,19.48 1.67,29.26 -1.16,9.6 -3.7,19.02 -8.38,27.53 -7.47,13.58 -16.64,26.1 -27.14,37.49 -9.93,10.78 -20.72,20.77 -32.34,29.71l-0.39 0.3 -0.4 0.29c-23.46,16.94 -49.18,30.12 -76.46,39.7 -28.69,10.07 -58.47,14.24 -88.79,12.02 -25.8,-1.89 -50.44,-8.84 -73.5,-20.59 -25.1,-12.8 -44.99,-31.72 -59.09,-56.12 -9.04,-15.63 -15.3,-32.48 -18.65,-50.22 -3.11,-16.45 -4.35,-33.15 -3.68,-49.88 0.67,-16.72 3.14,-33.28 7.25,-49.5 3.97,-15.67 9.22,-30.99 15.78,-45.44 12.06,-27.88 27.94,-54.03 47.3,-77.81 19.09,-23.45 40.81,-44.44 64.9,-62.72l0.47 -0.35c10.91,-7.97 22.13,-15.51 33.57,-22.69 12.85,-8.06 26.43,-14.92 40.56,-20.44 14.07,-5.49 28.62,-9.62 43.49,-12.28 16.22,-2.91 32.79,-3.16 49.09,-0.72 16.33,2.44 31.87,7.79 46.03,16.33 13.65,8.24 25.39,18.92 34.38,32.13 9.17,13.46 14.65,28.62 16.57,44.8 2.06,17.31 -0.63,34.54 -6.65,50.84 -6.07,16.45 -15.37,31.27 -26.89,44.44 -10.9,12.46 -23.08,23.7 -36.29,33.66 -13.2,9.96 -27.32,18.62 -42.2,25.84 -13.85,6.72 -28.31,12.41 -43.25,16.23 -9.37,2.4 -19.01,2.59 -28.48,0.62 -9.5,-1.98 -18.26,-6.05 -25.87,-12.06 -7.41,-5.85 -13.33,-13.17 -17.56,-21.61 -4.42,-8.84 -6.59,-18.46 -6.59,-28.34 0,-12.75 3.67,-24.88 11.26,-35.15 5.51,-7.45 12.24,-13.81 19.9,-19.02 7.17,-4.88 14.94,-8.75 23.13,-11.58 5.68,-1.96 11.36,-3.9 17.12,-5.59 10.81,-3.18 21.73,-7.19 31.62,-12.65 5.54,-3.06 10.46,-6.85 14.83,-11.29 -5.03,-0.02 -10.03,0.52 -14.95,1.58 -6.35,1.36 -12.57,3.26 -18.62,5.61 -6.11,2.39 -12.16,5.05 -17.96,8.13l-0.69 0.35c-18.7,9.35 -35.72,21.38 -50.99,35.67 -15.6,14.61 -29.46,30.91 -40.93,48.96 -7.6,11.96 -13.65,25.52 -18.85,38.67 -5.71,14.44 -9.69,29.43 -11.65,44.84 -1.67,13.07 -1.29,26.2 1.87,39.03 2.09,8.47 6.36,14.51 13.5,19.51 5.62,3.93 11.73,7.09 18.38,8.85 7.34,1.94 14.83,2.91 22.43,2.91 8.17,0 16.28,-1.01 24.24,-2.86 9.17,-2.13 18.23,-4.7 27.13,-7.76 11.32,-4.24 22.05,-9.87 32.15,-16.5 9.37,-6.15 17.99,-13.36 25.36,-21.82 1.61,-2.13 3.06,-4.37 4.38,-6.68 2.13,-3.72 4.23,-7.46 6.3,-11.21 2.92,-5.31 6.25,-10.38 9.97,-15.16 5.63,-7.24 12.69,-13.07 20.59,-17.02 14.41,-7.59 31.02,-10.27 46.28,-2.67 -0.81,-2.56 -1.38,-5.23 -1.7,-7.99 -1.47,-12.48 2.88,-23.95 9.49,-34.29 5.25,-8.21 10.11,-16.69 14.73,-25.26 4.93,-9.15 9.51,-18.49 13.73,-27.99 3.93,-8.85 7.48,-17.89 10.49,-27.09 2.2,-6.74 4.24,-13.89 5.3,-20.91 2.16,-14.39 8.32,-27.5 19.38,-37.18 10.63,-9.3 23.72,-14.6 37.98,-13.41 16.2,1.35 29.32,10.91 36.96,25.1 1.81,3.37 3.17,6.85 4.11,10.4 1.15,0.34 2.29,0.7 3.43,1.07 15.69,5.11 28.59,14.94 38.17,28.35l0.39 0.55 0.37 0.56c6.09,9.32 9.87,19.41 11.64,29.92 1.25,-2.23 2.72,-4.93 3.66,-7.23 1.08,-12.68 6.34,-24.3 15.43,-33.5 4.81,-4.87 10.29,-8.7 16.26,-11.39zm-287.66 13.33c7.98,-9.89 11.5,-18.54 10.55,-25.94 -0.95,-7.41 -6.18,-13.21 -15.68,-17.39 -7.22,-3.04 -14.83,-4.65 -22.81,-4.85 -7.98,-0.19 -15.97,0.57 -23.95,2.28 -7.98,1.71 -15.87,4.09 -23.66,7.13 -7.79,3.04 -14.92,6.27 -21.38,9.69 -21.29,10.64 -40.86,24.33 -58.73,41.06 -17.87,16.72 -33.26,35.16 -46.19,55.31 -7.61,12.17 -14.83,26.89 -21.67,44.19 -6.84,17.3 -11.41,34.88 -13.69,52.74 -2.28,17.87 -1.43,34.88 2.57,51.03 3.99,16.16 12.83,28.99 26.51,38.49 9.12,6.46 18.72,11.02 28.8,13.69 10.07,2.66 20.34,3.99 30.79,3.99 10.45,0 21,-1.23 31.65,-3.7 10.64,-2.47 20.91,-5.42 30.79,-8.84 13.3,-4.94 26.32,-11.59 39.06,-19.96 12.73,-8.36 23.66,-17.87 32.78,-28.51 2.66,-3.43 5.13,-7.13 7.41,-11.12 2.28,-3.99 4.47,-7.89 6.56,-11.69 2.09,-3.8 4.46,-7.41 7.13,-10.83 2.66,-3.42 5.89,-6.08 9.69,-7.98 7.22,-3.8 12.93,-4.56 17.11,-2.28 4.18,2.28 6.94,5.99 8.27,11.12 1.33,5.13 1.61,10.83 0.85,17.11 -0.76,6.27 -2.28,11.5 -4.56,15.68 -6.08,11.02 -13.59,21.38 -22.52,31.07 -8.93,9.69 -18.34,18.34 -28.22,25.94 -20.53,14.82 -43.24,26.61 -68.14,35.35 -24.9,8.74 -50.08,12.17 -75.55,10.26 -21.29,-1.52 -41.63,-7.22 -61.01,-17.1 -19.39,-9.88 -34.59,-24.33 -45.62,-43.33 -7.22,-12.54 -12.16,-25.85 -14.82,-39.91 -2.66,-14.07 -3.7,-28.22 -3.13,-42.48 0.57,-14.26 2.66,-28.51 6.27,-42.76 3.61,-14.26 8.27,-27.65 13.97,-40.2 11.02,-25.47 25.28,-48.94 42.76,-70.42 17.49,-21.48 37.25,-40.58 59.3,-57.3 9.89,-7.22 20.43,-14.35 31.65,-21.39 11.22,-7.03 22.91,-12.93 35.07,-17.68 12.16,-4.75 24.61,-8.26 37.35,-10.55 12.73,-2.28 25.56,-2.47 38.49,-0.57 12.54,1.9 23.85,5.89 33.93,11.98 10.07,6.08 18.15,13.59 24.24,22.52 6.08,8.94 9.79,19.01 11.11,30.22 1.33,11.21 -0.28,23.09 -4.84,35.63 -4.56,12.17 -11.5,23.57 -20.81,34.21 -9.31,10.65 -19.77,20.34 -31.36,29.08 -11.59,8.74 -23.85,16.25 -36.78,22.53 -12.93,6.27 -25.28,10.93 -37.06,13.96 -4.56,1.14 -9.12,1.24 -13.69,0.29 -4.56,-0.95 -8.65,-2.85 -12.26,-5.7 -3.61,-2.85 -6.46,-6.37 -8.55,-10.55 -2.09,-4.19 -3.13,-8.74 -3.13,-13.69 0,-6.08 1.61,-11.31 4.85,-15.68 3.23,-4.37 7.22,-8.17 11.97,-11.41 4.75,-3.23 9.88,-5.8 15.39,-7.7 5.52,-1.9 10.74,-3.61 15.68,-5.13 14.44,-4.18 27.18,-9.31 38.2,-15.39 11.03,-6.08 20.72,-14.26 29.08,-24.52zm83.25 112.33c5.32,-8.37 10.64,-17.49 15.96,-27.37 5.32,-9.88 10.26,-19.96 14.82,-30.22 4.56,-10.26 8.46,-20.33 11.69,-30.22 3.23,-9.88 5.41,-18.63 6.56,-26.23 1.14,-7.6 3.99,-13.4 8.55,-17.39 4.56,-3.99 9.12,-5.8 13.69,-5.42 4.56,0.38 8.17,3.04 10.83,7.98 2.66,4.94 2.66,12.35 0,22.24 8.74,0.38 17.48,1.99 26.23,4.85 8.74,2.85 15.96,8.27 21.67,16.25 6.46,9.89 8.74,21.76 6.84,35.64 -1.9,13.87 -8.36,30.13 -19.39,48.75 -11.4,19.01 -20.24,34.12 -26.51,45.33 -6.27,11.21 -10.74,21.57 -13.4,31.07 -1.9,6.46 -2.94,11.31 -3.13,14.54 -0.19,3.23 0.09,5.23 0.85,5.99 1.14,0 3.8,-0.85 7.98,-2.57 4.18,-1.71 9.98,-5.8 17.39,-12.26 7.41,-6.46 16.44,-16.06 27.08,-28.8 10.65,-12.73 22.81,-30.12 36.49,-52.17 3.43,-5.32 7.04,-8.84 10.83,-10.55 3.8,-1.71 7.13,-2 9.98,-0.86 2.85,1.14 4.56,3.42 5.13,6.84 0.57,3.42 -0.85,7.79 -4.28,13.11 -6.08,9.88 -13.49,22.24 -22.24,37.06 -8.74,14.82 -18.06,29.08 -27.94,42.76 -9.88,13.69 -20.05,25.47 -30.5,35.35 -10.45,9.88 -20.43,14.82 -29.94,14.82 -11.4,0 -20.72,-3.42 -27.94,-10.26 -8.36,-7.22 -13.49,-15.49 -15.39,-24.8 -1.9,-9.31 -1.14,-20.15 2.28,-32.5 3.42,-12.35 9.12,-26.32 17.11,-41.91 7.98,-15.59 17.68,-33.07 29.08,-52.46 7.98,-13.3 12.35,-22.81 13.11,-28.51 0.76,-5.7 1.14,-8.74 1.14,-9.12 -0.76,-0.76 -3.33,-1.61 -7.7,-2.57 -4.37,-0.95 -12.64,-0.47 -24.8,1.43 -3.8,7.22 -7.79,14.64 -11.97,22.24 -4.18,7.6 -8.17,14.73 -11.98,21.38 -3.8,6.65 -7.31,12.64 -10.55,17.96 -3.23,5.32 -5.8,9.12 -7.7,11.41 -3.04,4.18 -6.46,6.93 -10.26,8.27 -3.8,1.33 -7.04,1.42 -9.69,0.28 -2.66,-1.14 -4.19,-3.33 -4.56,-6.56 -0.38,-3.23 1.14,-7.51 4.56,-12.83zm159.65 131.14c-4.18,-2.66 -8.27,-6.17 -12.26,-10.55 -3.99,-4.37 -7.13,-9.79 -9.41,-16.25 -2.28,-6.46 -3.32,-14.16 -3.13,-23.09 0.19,-8.93 2.19,-19.29 5.99,-31.07 4.18,-12.93 10.07,-26.23 17.68,-39.91 7.6,-13.69 15.02,-26.8 22.24,-39.35 5.32,-8.36 10.65,-17.3 15.96,-26.8 5.32,-9.5 8.17,-16.15 8.56,-19.96 0,-6.08 2.09,-11.21 6.18,-15.39 4.18,-4.18 9.03,-6.27 14.63,-6.27 5.99,0 11.12,2 15.2,5.99 4.09,3.99 6.37,9.03 6.75,15.11 0,8.36 -2.66,17.87 -7.89,28.51 -5.22,10.65 -12.73,24.33 -22.52,41.06 -4.46,7.98 -9.79,17.2 -15.78,27.65 -6.08,10.45 -11.31,20.62 -15.68,30.51 -4.37,9.88 -7.22,18.91 -8.56,27.08 -1.33,8.17 0.29,13.59 4.85,16.25 0.76,0.38 2.19,0.57 4.28,0.57 2.09,0 4.85,-0.76 8.27,-2.28 3.43,-1.52 7.7,-3.99 12.74,-7.41 5.13,-3.42 11.02,-8.17 17.77,-14.26 6.75,-6.08 13.3,-12.64 19.77,-19.67 6.37,-7.03 12.35,-13.87 17.86,-20.53 5.52,-6.65 10.36,-12.64 14.54,-17.96 4.18,-5.32 7.41,-9.7 9.69,-13.11 3.42,-4.56 6.94,-7.41 10.55,-8.56 3.61,-1.14 6.75,-1.04 9.41,0.29 2.66,1.33 4.28,3.7 4.85,7.13 0.57,3.42 -0.85,7.41 -4.28,11.98 -1.9,2.28 -5.32,7.79 -10.26,16.54 -4.94,8.74 -11.21,18.63 -18.81,29.65 -7.61,11.02 -16.16,22.33 -25.57,33.93 -9.5,11.59 -19.39,21.48 -29.74,29.65 -10.26,8.17 -20.91,13.59 -31.93,16.25 -11.02,2.66 -21.67,0.76 -31.93,-5.7zm127.72 -277.11c0,7.6 -2.57,13.97 -7.7,19.1 -5.13,5.13 -11.5,7.7 -19.1,7.7 -7.6,0 -13.97,-2.57 -19.1,-7.7 -5.13,-5.13 -7.7,-11.5 -7.7,-19.1 0,-7.6 2.57,-13.97 7.7,-19.1 5.13,-5.13 11.5,-7.7 19.1,-7.7 7.6,0 13.97,2.57 19.1,7.7 5.13,5.13 7.7,11.5 7.7,19.1zm3.99 283.96c-5.7,-1.52 -10.17,-4.75 -13.4,-9.7 -3.23,-4.94 -4.09,-10.26 -2.57,-15.96 1.9,-8.36 5.98,-17.01 12.26,-25.94 6.28,-8.93 14.07,-18.24 23.38,-27.94 9.31,-9.69 19.86,-19.67 31.65,-29.93 11.78,-10.26 24.14,-20.91 37.06,-31.93 3.42,-3.04 8.17,-6.94 14.25,-11.69 6.08,-4.75 12.45,-9.79 19.1,-15.11 6.65,-5.32 12.93,-10.45 18.81,-15.4 5.89,-4.94 10.55,-8.93 13.97,-11.97 -14.06,4.56 -26.52,7.7 -37.35,9.41 -10.83,1.71 -20.24,2.28 -28.22,1.71 -7.98,-0.57 -14.45,-1.9 -19.39,-3.99 -4.94,-2.09 -8.36,-4.66 -10.26,-7.7l-37.63 62.72c-3.04,4.56 -6.46,7.79 -10.26,9.69 -3.8,1.9 -7.31,2.57 -10.55,2 -3.23,-0.57 -5.41,-2.28 -6.56,-5.13 -1.14,-2.85 -0.19,-6.56 2.85,-11.12 9.5,-14.83 17.58,-28.7 24.23,-41.63 6.65,-12.92 12.74,-24.33 18.25,-34.21 5.51,-9.88 10.93,-17.96 16.25,-24.23 5.32,-6.27 11.22,-10.17 17.68,-11.69 7.98,-1.9 14.44,-1.33 19.39,1.71 4.94,3.04 7.98,7.22 9.12,12.54 0.76,1.52 4.47,3.99 11.12,7.41 6.66,3.43 13.4,5.7 20.24,6.85 2.66,0.38 5.99,0.57 9.98,0.57 3.99,0 8.36,-0.67 13.11,-2 4.75,-1.33 9.79,-3.61 15.11,-6.84 5.32,-3.23 10.64,-7.89 15.96,-13.97 4.94,-5.7 10.36,-8.65 16.25,-8.83 5.89,-0.19 11.11,1.43 15.68,4.84 4.56,3.43 7.61,8.18 9.13,14.26 1.52,6.08 0.38,12.55 -3.42,19.39 -9.89,16.73 -22.24,32.41 -37.06,47.04 -14.83,14.63 -30.41,28.04 -46.76,40.2 -16.35,12.17 -32.22,23.09 -47.61,32.79 -15.39,9.69 -28.41,17.77 -39.06,24.23 6.84,-0.76 13.68,-0.38 20.52,1.14 6.85,1.52 13.5,4.37 19.96,8.55 5.32,3.8 10.83,6.85 16.54,9.13 5.7,2.28 10.83,3.42 15.39,3.42 12.16,0 26.99,-7.98 44.48,-23.94 17.48,-15.96 35.35,-38.2 53.6,-66.71 2.66,-4.18 5.89,-6.94 9.69,-8.27 3.8,-1.33 7.03,-1.43 9.69,-0.29 2.66,1.14 4.37,3.23 5.13,6.28 0.76,3.04 -0.19,6.65 -2.85,10.83 -11.78,18.25 -22.71,35.07 -32.78,50.46 -10.07,15.39 -19.86,28.6 -29.37,39.63 -9.5,11.02 -18.91,19.58 -28.22,25.66 -9.31,6.08 -19.1,9.13 -29.37,9.13 -10.26,0 -19.77,-2 -28.51,-5.99 -8.74,-3.99 -16.91,-8.08 -24.52,-12.26 -5.7,-3.04 -11.31,-5.89 -16.82,-8.55 -5.51,-2.66 -10.17,-3.61 -13.97,-2.85 -1.52,0.76 -3.99,2.66 -7.41,5.7 -3.42,3.04 -7.41,8.93 -11.97,17.68 -2.28,4.18 -5.8,7.41 -10.55,9.69 -4.75,2.28 -9.22,2.66 -13.4,1.14zm263.43 -2.28c-14.82,0 -27.75,-4.75 -38.77,-14.25 -23.95,-19.39 -28.13,-49.99 -12.54,-91.8 6.08,-15.59 14.06,-31.93 23.95,-49.04 9.88,-17.11 20.52,-34.97 31.93,-53.6 13.31,-22.43 26.23,-44.66 38.78,-66.71 12.54,-22.05 21.29,-42.57 26.22,-61.58 1.52,-5.7 4.85,-10.17 9.98,-13.4 5.13,-3.23 10.55,-3.9 16.25,-2 5.7,1.52 10.07,4.75 13.11,9.69 3.04,4.94 3.8,10.27 2.28,15.97 -5.7,22.43 -15.2,45.52 -28.51,69.28 -13.31,23.76 -27.18,47.43 -41.63,70.99 -8.36,13.69 -16.82,27.75 -25.37,42.19 -8.56,14.44 -15.78,28.22 -21.67,41.34 -5.89,13.11 -9.69,24.61 -11.41,34.5 -1.71,9.89 0.09,17.11 5.42,21.67 1.9,1.14 5.04,2.47 9.41,3.99 4.37,1.52 11.31,-0.19 20.81,-5.13 10.26,-5.32 20.72,-13.3 31.36,-23.94 10.64,-10.65 20.33,-23.19 29.08,-37.63 8.74,-14.44 15.4,-28.41 19.96,-41.91 4.56,-13.5 6.46,-25.19 5.7,-35.07 0,-1.14 -0.09,-2.19 -0.28,-3.14 -0.19,-0.95 -0.29,-1.8 -0.29,-2.57 -4.56,-3.42 -8.74,-7.03 -12.54,-10.83 -3.8,-3.8 -7.22,-7.79 -10.26,-11.98 -2.66,-3.8 -3.99,-7.98 -3.99,-12.54 0,-4.56 1.52,-8.74 4.56,-12.54 3.04,-3.8 6.75,-6.37 11.12,-7.7 4.37,-1.33 8.84,-1.24 13.4,0.28 14.82,5.7 25.66,14.83 32.5,27.37 7.22,4.56 15.39,8.46 24.52,11.69 9.13,3.23 18.34,5.42 27.66,6.56 9.31,1.14 18.44,0.95 27.37,-0.57 8.93,-1.52 16.82,-4.56 23.66,-9.12 3.8,-2.66 7.13,-3.61 9.98,-2.85 2.85,0.76 4.85,2.47 5.99,5.13 1.14,2.66 1.33,5.7 0.57,9.12 -0.76,3.42 -2.85,6.46 -6.27,9.12 -7.22,5.7 -15.96,10.07 -26.23,13.12 -10.26,3.04 -20.62,5.13 -31.07,6.27 -10.45,1.14 -20.24,1.42 -29.37,0.85 -9.12,-0.57 -15.96,-1.8 -20.53,-3.7 -1.14,15.59 -4.94,31.65 -11.41,48.18 -6.46,16.54 -14.63,32.41 -24.52,47.61 -9.89,15.2 -20.91,28.89 -33.07,41.06 -12.17,12.16 -24.71,21.47 -37.63,27.94 -12.54,6.46 -25.28,9.69 -38.2,9.69zm230.36 3.42c-22.05,0 -38.77,-5.13 -50.18,-15.39 -10.26,-9.5 -16.82,-20.53 -19.67,-33.07 -2.85,-12.54 -3.14,-25.75 -0.86,-39.63 2.28,-13.87 6.46,-27.65 12.54,-41.34 6.08,-13.69 13.11,-26.42 21.1,-38.2 9.5,-14.44 20.43,-27.84 32.79,-40.2 12.35,-12.35 25.19,-22.43 38.49,-30.22 13.3,-7.8 26.51,-12.55 39.63,-14.26 13.12,-1.71 25.37,0.67 36.78,7.13 9.5,5.32 16.54,12.64 21.1,21.95 4.56,9.31 6.08,19.67 4.56,31.08 -0.76,9.12 -3.23,18.06 -7.42,26.8 -4.18,8.74 -9.41,16.92 -15.68,24.52 -6.27,7.6 -13.59,14.26 -21.95,19.96 -8.37,5.7 -17.3,10.07 -26.8,13.11 -4.18,1.14 -9.22,2.19 -15.11,3.14 -5.89,0.95 -12.26,1.14 -19.1,0.57 -6.84,-0.57 -13.97,-2.28 -21.38,-5.13 -7.41,-2.85 -15.11,-7.13 -23.09,-12.83 -3.8,7.6 -6.94,15.11 -9.41,22.52 -2.47,7.41 -4.09,14.35 -4.85,20.81 -0.76,6.46 -0.57,12.45 0.57,17.96 1.14,5.51 3.42,9.98 6.85,13.4 7.98,7.98 19.19,11.12 33.64,9.41 14.44,-1.71 30.03,-7.03 46.76,-15.96 16.73,-8.93 33.64,-20.81 50.75,-35.64 17.11,-14.83 32.5,-31.36 46.19,-49.61 3.43,-4.94 7.13,-8.08 11.12,-9.41 3.99,-1.33 7.22,-1.33 9.7,0 2.47,1.33 3.89,3.8 4.28,7.41 0.38,3.61 -1.33,7.89 -5.13,12.83 -28.13,38.39 -56.16,68.7 -84.1,90.94 -27.94,22.24 -54.07,34.5 -78.4,36.78 -2.28,0.38 -4.56,0.57 -6.84,0.57 -2.28,0 -4.56,0 -6.84,0zm9.13 -158.51c12.92,11.02 26.98,14.25 42.19,9.69 9.12,-2.66 17.11,-7.31 23.95,-13.97 6.84,-6.65 12.26,-13.59 16.25,-20.81 3.99,-7.22 6.28,-13.87 6.84,-19.96 0.57,-6.08 -1.04,-10.26 -4.85,-12.54 -3.42,-2.28 -8.46,-2.47 -15.11,-0.57 -6.65,1.9 -13.97,5.42 -21.95,10.55 -7.98,5.13 -16.15,11.78 -24.52,19.96 -8.37,8.17 -15.97,17.39 -22.81,27.66zm-169.06 -16.6c-0.48,0.78 -0.95,1.56 -1.43,2.34 -8.49,13.86 -16.85,27.8 -25.13,41.78 -6.27,10.59 -12.18,21.44 -17.44,32.58 0,-0 0.01,-0.01 0.02,-0.02 9.38,-9.37 17.36,-20.1 24.22,-31.43 6.76,-11.16 12.76,-23.05 16.95,-35.43 0.98,-2.9 2.02,-6.31 2.81,-9.81zm178.95 102.61c-5.02,-0.86 -9.97,-2.08 -14.83,-3.62 -0.06,0.42 -0.11,0.84 -0.17,1.26 -0.17,1.47 -0.28,3.04 -0.22,4.6 1.73,0.11 3.91,-0.07 4.89,-0.19 3.44,-0.41 6.89,-1.11 10.32,-2.05z"/>
   <path class="fil1" d="M384.81 214.56c7.98,-9.89 11.5,-18.54 10.55,-25.94 -0.95,-7.41 -6.18,-13.21 -15.68,-17.39 -7.22,-3.04 -14.83,-4.65 -22.81,-4.85 -7.98,-0.19 -15.97,0.57 -23.95,2.28 -7.98,1.71 -15.87,4.09 -23.66,7.13 -7.79,3.04 -14.92,6.27 -21.38,9.69 -21.29,10.64 -40.86,24.33 -58.73,41.06 -17.87,16.72 -33.26,35.16 -46.19,55.31 -7.61,12.17 -14.83,26.89 -21.67,44.19 -6.84,17.3 -11.41,34.88 -13.69,52.74 -2.28,17.87 -1.43,34.88 2.57,51.03 3.99,16.16 12.83,28.99 26.51,38.49 9.12,6.46 18.72,11.02 28.8,13.69 10.07,2.66 20.34,3.99 30.79,3.99 10.45,0 21,-1.23 31.65,-3.7 10.64,-2.47 20.91,-5.42 30.79,-8.84 13.3,-4.94 26.32,-11.59 39.06,-19.96 12.73,-8.36 23.66,-17.87 32.78,-28.51 2.66,-3.43 5.13,-7.13 7.41,-11.12 2.28,-3.99 4.47,-7.89 6.56,-11.69 2.09,-3.8 4.46,-7.41 7.13,-10.83 2.66,-3.42 5.89,-6.08 9.69,-7.98 7.22,-3.8 12.93,-4.56 17.11,-2.28 4.18,2.28 6.94,5.99 8.27,11.12 1.33,5.13 1.61,10.83 0.85,17.11 -0.76,6.27 -2.28,11.5 -4.56,15.68 -6.08,11.02 -13.59,21.38 -22.52,31.07 -8.93,9.69 -18.34,18.34 -28.22,25.94 -20.53,14.82 -43.24,26.61 -68.14,35.35 -24.9,8.74 -50.08,12.17 -75.55,10.26 -21.29,-1.52 -41.63,-7.22 -61.01,-17.1 -19.39,-9.88 -34.59,-24.33 -45.62,-43.33 -7.22,-12.54 -12.16,-25.85 -14.82,-39.91 -2.66,-14.07 -3.7,-28.22 -3.13,-42.48 0.57,-14.26 2.66,-28.51 6.27,-42.76 3.61,-14.26 8.27,-27.65 13.97,-40.2 11.02,-25.47 25.28,-48.94 42.76,-70.42 17.49,-21.48 37.25,-40.58 59.3,-57.3 9.89,-7.22 20.43,-14.35 31.65,-21.39 11.22,-7.03 22.91,-12.93 35.07,-17.68 12.16,-4.75 24.61,-8.26 37.35,-10.55 12.73,-2.28 25.56,-2.47 38.49,-0.57 12.54,1.9 23.85,5.89 33.93,11.98 10.07,6.08 18.15,13.59 24.24,22.52 6.08,8.94 9.79,19.01 11.11,30.22 1.33,11.21 -0.28,23.09 -4.84,35.63 -4.56,12.17 -11.5,23.57 -20.81,34.21 -9.31,10.65 -19.77,20.34 -31.36,29.08 -11.59,8.74 -23.85,16.25 -36.78,22.53 -12.93,6.27 -25.28,10.93 -37.06,13.96 -4.56,1.14 -9.12,1.24 -13.69,0.29 -4.56,-0.95 -8.65,-2.85 -12.26,-5.7 -3.61,-2.85 -6.46,-6.37 -8.55,-10.55 -2.09,-4.19 -3.13,-8.74 -3.13,-13.69 0,-6.08 1.61,-11.31 4.85,-15.68 3.23,-4.37 7.22,-8.17 11.97,-11.41 4.75,-3.23 9.88,-5.8 15.39,-7.7 5.52,-1.9 10.74,-3.61 15.68,-5.13 14.44,-4.18 27.18,-9.31 38.2,-15.39 11.03,-6.08 20.72,-14.26 29.08,-24.52zm83.25 112.33c5.32,-8.37 10.64,-17.49 15.96,-27.37 5.32,-9.88 10.26,-19.96 14.82,-30.22 4.56,-10.26 8.46,-20.33 11.69,-30.22 3.23,-9.88 5.41,-18.63 6.56,-26.23 1.14,-7.6 3.99,-13.4 8.55,-17.39 4.56,-3.99 9.12,-5.8 13.69,-5.42 4.56,0.38 8.17,3.04 10.83,7.98 2.66,4.94 2.66,12.35 0,22.24 8.74,0.38 17.48,1.99 26.23,4.85 8.74,2.85 15.96,8.27 21.67,16.25 6.46,9.89 8.74,21.76 6.84,35.64 -1.9,13.87 -8.36,30.13 -19.39,48.75 -11.4,19.01 -20.24,34.12 -26.51,45.33 -6.27,11.21 -10.74,21.57 -13.4,31.07 -1.9,6.46 -2.94,11.31 -3.13,14.54 -0.19,3.23 0.09,5.23 0.85,5.99 1.14,0 3.8,-0.85 7.98,-2.57 4.18,-1.71 9.98,-5.8 17.39,-12.26 7.41,-6.46 16.44,-16.06 27.08,-28.8 10.65,-12.73 22.81,-30.12 36.49,-52.17 3.43,-5.32 7.04,-8.84 10.83,-10.55 3.8,-1.71 7.13,-2 9.98,-0.86 2.85,1.14 4.56,3.42 5.13,6.84 0.57,3.42 -0.85,7.79 -4.28,13.11 -6.08,9.88 -13.49,22.24 -22.24,37.06 -8.74,14.82 -18.06,29.08 -27.94,42.76 -9.88,13.69 -20.05,25.47 -30.5,35.35 -10.45,9.88 -20.43,14.82 -29.94,14.82 -11.4,0 -20.72,-3.42 -27.94,-10.26 -8.36,-7.22 -13.49,-15.49 -15.39,-24.8 -1.9,-9.31 -1.14,-20.15 2.28,-32.5 3.42,-12.35 9.12,-26.32 17.11,-41.91 7.98,-15.59 17.68,-33.07 29.08,-52.46 7.98,-13.3 12.35,-22.81 13.11,-28.51 0.76,-5.7 1.14,-8.74 1.14,-9.12 -0.76,-0.76 -3.33,-1.61 -7.7,-2.57 -4.37,-0.95 -12.64,-0.47 -24.8,1.43 -3.8,7.22 -7.79,14.64 -11.97,22.24 -4.18,7.6 -8.17,14.73 -11.98,21.38 -3.8,6.65 -7.31,12.64 -10.55,17.96 -3.23,5.32 -5.8,9.12 -7.7,11.41 -3.04,4.18 -6.46,6.93 -10.26,8.27 -3.8,1.33 -7.04,1.42 -9.69,0.28 -2.66,-1.14 -4.19,-3.33 -4.56,-6.56 -0.38,-3.23 1.14,-7.51 4.56,-12.83zm159.65 131.14c-4.18,-2.66 -8.27,-6.17 -12.26,-10.55 -3.99,-4.37 -7.13,-9.79 -9.41,-16.25 -2.28,-6.46 -3.32,-14.16 -3.13,-23.09 0.19,-8.93 2.19,-19.29 5.99,-31.07 4.18,-12.93 10.07,-26.23 17.68,-39.91 7.6,-13.69 15.02,-26.8 22.24,-39.35 5.32,-8.36 10.65,-17.3 15.96,-26.8 5.32,-9.5 8.17,-16.15 8.56,-19.96 0,-6.08 2.09,-11.21 6.18,-15.39 4.18,-4.18 9.03,-6.27 14.63,-6.27 5.99,0 11.12,2 15.2,5.99 4.09,3.99 6.37,9.03 6.75,15.11 0,8.36 -2.66,17.87 -7.89,28.51 -5.22,10.65 -12.73,24.33 -22.52,41.06 -4.46,7.98 -9.79,17.2 -15.78,27.65 -6.08,10.45 -11.31,20.62 -15.68,30.51 -4.37,9.88 -7.22,18.91 -8.56,27.08 -1.33,8.17 0.29,13.59 4.85,16.25 0.76,0.38 2.19,0.57 4.28,0.57 2.09,0 4.85,-0.76 8.27,-2.28 3.43,-1.52 7.7,-3.99 12.74,-7.41 5.13,-3.42 11.02,-8.17 17.77,-14.26 6.75,-6.08 13.3,-12.64 19.77,-19.67 6.37,-7.03 12.35,-13.87 17.86,-20.53 5.52,-6.65 10.36,-12.64 14.54,-17.96 4.18,-5.32 7.41,-9.7 9.69,-13.11 3.42,-4.56 6.94,-7.41 10.55,-8.56 3.61,-1.14 6.75,-1.04 9.41,0.29 2.66,1.33 4.28,3.7 4.85,7.13 0.57,3.42 -0.85,7.41 -4.28,11.98 -1.9,2.28 -5.32,7.79 -10.26,16.54 -4.94,8.74 -11.21,18.63 -18.81,29.65 -7.61,11.02 -16.16,22.33 -25.57,33.93 -9.5,11.59 -19.39,21.48 -29.74,29.65 -10.26,8.17 -20.91,13.59 -31.93,16.25 -11.02,2.66 -21.67,0.76 -31.93,-5.7zm127.72 -277.11c0,7.6 -2.57,13.97 -7.7,19.1 -5.13,5.13 -11.5,7.7 -19.1,7.7 -7.6,0 -13.97,-2.57 -19.1,-7.7 -5.13,-5.13 -7.7,-11.5 -7.7,-19.1 0,-7.6 2.57,-13.97 7.7,-19.1 5.13,-5.13 11.5,-7.7 19.1,-7.7 7.6,0 13.97,2.57 19.1,7.7 5.13,5.13 7.7,11.5 7.7,19.1zm3.99 283.96c-5.7,-1.52 -10.17,-4.75 -13.4,-9.7 -3.23,-4.94 -4.09,-10.26 -2.57,-15.96 1.9,-8.36 5.98,-17.01 12.26,-25.94 6.28,-8.93 14.07,-18.24 23.38,-27.94 9.31,-9.69 19.86,-19.67 31.65,-29.93 11.78,-10.26 24.14,-20.91 37.06,-31.93 3.42,-3.04 8.17,-6.94 14.25,-11.69 6.08,-4.75 12.45,-9.79 19.1,-15.11 6.65,-5.32 12.93,-10.45 18.81,-15.4 5.89,-4.94 10.55,-8.93 13.97,-11.97 -14.06,4.56 -26.52,7.7 -37.35,9.41 -10.83,1.71 -20.24,2.28 -28.22,1.71 -7.98,-0.57 -14.45,-1.9 -19.39,-3.99 -4.94,-2.09 -8.36,-4.66 -10.26,-7.7l-37.63 62.72c-3.04,4.56 -6.46,7.79 -10.26,9.69 -3.8,1.9 -7.31,2.57 -10.55,2 -3.23,-0.57 -5.41,-2.28 -6.56,-5.13 -1.14,-2.85 -0.19,-6.56 2.85,-11.12 9.5,-14.83 17.58,-28.7 24.23,-41.63 6.65,-12.92 12.74,-24.33 18.25,-34.21 5.51,-9.88 10.93,-17.96 16.25,-24.23 5.32,-6.27 11.22,-10.17 17.68,-11.69 7.98,-1.9 14.44,-1.33 19.39,1.71 4.94,3.04 7.98,7.22 9.12,12.54 0.76,1.52 4.47,3.99 11.12,7.41 6.66,3.43 13.4,5.7 20.24,6.85 2.66,0.38 5.99,0.57 9.98,0.57 3.99,0 8.36,-0.67 13.11,-2 4.75,-1.33 9.79,-3.61 15.11,-6.84 5.32,-3.23 10.64,-7.89 15.96,-13.97 4.94,-5.7 10.36,-8.65 16.25,-8.83 5.89,-0.19 11.11,1.43 15.68,4.84 4.56,3.43 7.61,8.18 9.13,14.26 1.52,6.08 0.38,12.55 -3.42,19.39 -9.89,16.73 -22.24,32.41 -37.06,47.04 -14.83,14.63 -30.41,28.04 -46.76,40.2 -16.35,12.17 -32.22,23.09 -47.61,32.79 -15.39,9.69 -28.41,17.77 -39.06,24.23 6.84,-0.76 13.68,-0.38 20.52,1.14 6.85,1.52 13.5,4.37 19.96,8.55 5.32,3.8 10.83,6.85 16.54,9.13 5.7,2.28 10.83,3.42 15.39,3.42 12.16,0 26.99,-7.98 44.48,-23.94 17.48,-15.96 35.35,-38.2 53.6,-66.71 2.66,-4.18 5.89,-6.94 9.69,-8.27 3.8,-1.33 7.03,-1.43 9.69,-0.29 2.66,1.14 4.37,3.23 5.13,6.28 0.76,3.04 -0.19,6.65 -2.85,10.83 -11.78,18.25 -22.71,35.07 -32.78,50.46 -10.07,15.39 -19.86,28.6 -29.37,39.63 -9.5,11.02 -18.91,19.58 -28.22,25.66 -9.31,6.08 -19.1,9.13 -29.37,9.13 -10.26,0 -19.77,-2 -28.51,-5.99 -8.74,-3.99 -16.91,-8.08 -24.52,-12.26 -5.7,-3.04 -11.31,-5.89 -16.82,-8.55 -5.51,-2.66 -10.17,-3.61 -13.97,-2.85 -1.52,0.76 -3.99,2.66 -7.41,5.7 -3.42,3.04 -7.41,8.93 -11.97,17.68 -2.28,4.18 -5.8,7.41 -10.55,9.69 -4.75,2.28 -9.22,2.66 -13.4,1.14zm263.43 -2.28c-14.82,0 -27.75,-4.75 -38.77,-14.25 -23.95,-19.39 -28.13,-49.99 -12.54,-91.8 6.08,-15.59 14.06,-31.93 23.95,-49.04 9.88,-17.11 20.52,-34.97 31.93,-53.6 13.31,-22.43 26.23,-44.66 38.78,-66.71 12.54,-22.05 21.29,-42.57 26.22,-61.58 1.52,-5.7 4.85,-10.17 9.98,-13.4 5.13,-3.23 10.55,-3.9 16.25,-2 5.7,1.52 10.07,4.75 13.11,9.69 3.04,4.94 3.8,10.27 2.28,15.97 -5.7,22.43 -15.2,45.52 -28.51,69.28 -13.31,23.76 -27.18,47.43 -41.63,70.99 -8.36,13.69 -16.82,27.75 -25.37,42.19 -8.56,14.44 -15.78,28.22 -21.67,41.34 -5.89,13.11 -9.69,24.61 -11.41,34.5 -1.71,9.89 0.09,17.11 5.42,21.67 1.9,1.14 5.04,2.47 9.41,3.99 4.37,1.52 11.31,-0.19 20.81,-5.13 10.26,-5.32 20.72,-13.3 31.36,-23.94 10.64,-10.65 20.33,-23.19 29.08,-37.63 8.74,-14.44 15.4,-28.41 19.96,-41.91 4.56,-13.5 6.46,-25.19 5.7,-35.07 0,-1.14 -0.09,-2.19 -0.28,-3.14 -0.19,-0.95 -0.29,-1.8 -0.29,-2.57 -4.56,-3.42 -8.74,-7.03 -12.54,-10.83 -3.8,-3.8 -7.22,-7.79 -10.26,-11.98 -2.66,-3.8 -3.99,-7.98 -3.99,-12.54 0,-4.56 1.52,-8.74 4.56,-12.54 3.04,-3.8 6.75,-6.37 11.12,-7.7 4.37,-1.33 8.84,-1.24 13.4,0.28 14.82,5.7 25.66,14.83 32.5,27.37 7.22,4.56 15.39,8.46 24.52,11.69 9.13,3.23 18.34,5.42 27.66,6.56 9.31,1.14 18.44,0.95 27.37,-0.57 8.93,-1.52 16.82,-4.56 23.66,-9.12 3.8,-2.66 7.13,-3.61 9.98,-2.85 2.85,0.76 4.85,2.47 5.99,5.13 1.14,2.66 1.33,5.7 0.57,9.12 -0.76,3.42 -2.85,6.46 -6.27,9.12 -7.22,5.7 -15.96,10.07 -26.23,13.12 -10.26,3.04 -20.62,5.13 -31.07,6.27 -10.45,1.14 -20.24,1.42 -29.37,0.85 -9.12,-0.57 -15.96,-1.8 -20.53,-3.7 -1.14,15.59 -4.94,31.65 -11.41,48.18 -6.46,16.54 -14.63,32.41 -24.52,47.61 -9.89,15.2 -20.91,28.89 -33.07,41.06 -12.17,12.16 -24.71,21.47 -37.63,27.94 -12.54,6.46 -25.28,9.69 -38.2,9.69zm230.36 3.42c-22.05,0 -38.77,-5.13 -50.18,-15.39 -10.26,-9.5 -16.82,-20.53 -19.67,-33.07 -2.85,-12.54 -3.14,-25.75 -0.86,-39.63 2.28,-13.87 6.46,-27.65 12.54,-41.34 6.08,-13.69 13.11,-26.42 21.1,-38.2 9.5,-14.44 20.43,-27.84 32.79,-40.2 12.35,-12.35 25.19,-22.43 38.49,-30.22 13.3,-7.8 26.51,-12.55 39.63,-14.26 13.12,-1.71 25.37,0.67 36.78,7.13 9.5,5.32 16.54,12.64 21.1,21.95 4.56,9.31 6.08,19.67 4.56,31.08 -0.76,9.12 -3.23,18.06 -7.42,26.8 -4.18,8.74 -9.41,16.92 -15.68,24.52 -6.27,7.6 -13.59,14.26 -21.95,19.96 -8.37,5.7 -17.3,10.07 -26.8,13.11 -4.18,1.14 -9.22,2.19 -15.11,3.14 -5.89,0.95 -12.26,1.14 -19.1,0.57 -6.84,-0.57 -13.97,-2.28 -21.38,-5.13 -7.41,-2.85 -15.11,-7.13 -23.09,-12.83 -3.8,7.6 -6.94,15.11 -9.41,22.52 -2.47,7.41 -4.09,14.35 -4.85,20.81 -0.76,6.46 -0.57,12.45 0.57,17.96 1.14,5.51 3.42,9.98 6.85,13.4 7.98,7.98 19.19,11.12 33.64,9.41 14.44,-1.71 30.03,-7.03 46.76,-15.96 16.73,-8.93 33.64,-20.81 50.75,-35.64 17.11,-14.83 32.5,-31.36 46.19,-49.61 3.43,-4.94 7.13,-8.08 11.12,-9.41 3.99,-1.33 7.22,-1.33 9.7,0 2.47,1.33 3.89,3.8 4.28,7.41 0.38,3.61 -1.33,7.89 -5.13,12.83 -28.13,38.39 -56.16,68.7 -84.1,90.94 -27.94,22.24 -54.07,34.5 -78.4,36.78 -2.28,0.38 -4.56,0.57 -6.84,0.57 -2.28,0 -4.56,0 -6.84,0zm9.13 -158.51c12.92,11.02 26.98,14.25 42.19,9.69 9.12,-2.66 17.11,-7.31 23.95,-13.97 6.84,-6.65 12.26,-13.59 16.25,-20.81 3.99,-7.22 6.28,-13.87 6.84,-19.96 0.57,-6.08 -1.04,-10.26 -4.85,-12.54 -3.42,-2.28 -8.46,-2.47 -15.11,-0.57 -6.65,1.9 -13.97,5.42 -21.95,10.55 -7.98,5.13 -16.15,11.78 -24.52,19.96 -8.37,8.17 -15.97,17.39 -22.81,27.66z"/>
   <g>
    <g style="clip-path:url(#id1)">
     <image x="-2.13" y="1.33" width="1546.33" height="650.67" xlink:href="crizbe Logo White_Images\crizbe Logo White_ImgID2.png"/>
    </g>
   </g>
   <path class="fil0" d="M672.46 201.23c-2.25,-6.39 -3.39,-13.22 -3.39,-20.31 0,-16.11 5.89,-30.86 17.29,-42.26 11.4,-11.4 26.15,-17.29 42.26,-17.29 16.11,0 30.86,5.89 42.26,17.29 11.4,11.41 17.29,26.16 17.29,42.26 0,16.11 -5.89,30.87 -17.3,42.27 -6.86,6.86 -14.93,11.72 -23.78,14.51 0.88,3.47 1.44,7.06 1.67,10.74l0.06 1.02 0 1.02c0,15.02 -4.68,29.58 -11.24,42.95 -1.53,3.11 -3.1,6.21 -4.71,9.3 0.22,-0.24 0.43,-0.48 0.65,-0.72 6.43,-10.34 12.57,-20.91 18.14,-31.74 6.08,-11.81 12.29,-23.57 18.76,-35.17 5.74,-10.3 12.24,-20.47 19.88,-29.47 9.28,-10.94 21.04,-19.04 35.1,-22.37 15.11,-3.58 30.64,-2.61 44.11,5.69 7.82,4.81 14.1,11.24 18.44,18.92 3.12,1.57 6.41,2.77 9.84,3.39 1.6,0.19 3.43,0.19 5,0.19 1.3,0 3.05,-0.44 4.28,-0.78 2.33,-0.65 4.89,-2.05 6.94,-3.3 3.02,-1.83 5.96,-4.84 8.26,-7.48 10.33,-11.87 23.98,-19.55 39.9,-20.06 13.13,-0.43 25.87,3.49 36.39,11.38 7.01,5.25 12.48,11.85 16.36,19.41 7.67,-13.16 15.22,-26.39 22.75,-39.63 9.52,-16.73 18.13,-35 23.01,-53.67 3.62,-13.85 12.12,-25.21 24.22,-32.83 13.1,-8.24 28.38,-10.27 43.09,-5.66 13.32,3.8 24.33,12.07 31.62,23.91 7.71,12.54 9.77,27.04 6.11,41.28 -3.93,15.32 -9.21,30.26 -15.53,44.75 13.88,6.94 25.66,16.71 34.56,29.39 3.89,2 7.95,3.69 12.06,5.15 6.71,2.38 13.63,4.06 20.7,4.92 5.05,0.62 10.11,0.66 15.15,0.05 11.66,-10.86 24.38,-20.52 38.15,-28.59 16.04,-9.4 33.45,-16.06 51.95,-18.47 20.07,-2.62 39.46,1.13 57.09,11.07 15.02,8.46 26.85,20.59 34.43,36.08 7.51,15.33 9.82,32.15 7.72,49 -0.2,2.21 -0.47,4.41 -0.81,6.6 8.37,-0.87 16.78,0.49 24.53,4.66 12.44,6.7 19.86,18.89 21.33,32.83 1.4,13.33 -3.57,25.47 -11.49,35.89 -25.86,35.27 -55.61,69.63 -89.93,96.94 -27.24,21.69 -59.44,40.04 -94.65,43.66 -3.64,0.54 -7.31,0.82 -10.99,0.82 -2.28,0 -4.56,0 -6.84,0 -26.14,0 -52.44,-5.88 -72.25,-23.95 -14.84,-13.54 -25.09,-30.42 -29.54,-50.02 -0.69,-3.06 -1.27,-6.13 -1.74,-9.22 -8.44,11.52 -17.71,22.43 -27.83,32.54 -13.55,13.55 -28.85,25.3 -45.97,33.99 -16.59,8.42 -34.38,13.24 -53.03,13.24 -22.36,0 -42.78,-7.37 -59.77,-21.87 -3.74,-3.06 -7.16,-6.31 -10.28,-9.74 -5.93,5.46 -12.23,10.49 -18.95,14.88 -14.25,9.31 -30.23,14.45 -47.28,14.45 -14.59,0 -28.83,-2.88 -42.11,-8.94 -9,-4.11 -17.84,-8.55 -26.54,-13.27 -1.66,-0.9 -3.32,-1.78 -5,-2.65 -0.18,0.35 -0.35,0.67 -0.51,0.98l-0.3 0.55c-5.69,10.43 -14.43,18.39 -25.13,23.53 -11.83,5.68 -24.86,6.98 -37.31,2.9 -12.93,-3.76 -23.69,-11.74 -31.08,-23.06 -0.78,-1.19 -1.51,-2.4 -2.18,-3.63 -1.48,1.25 -2.98,2.47 -4.5,3.68 -13.24,10.49 -28.11,18.44 -44.59,22.43 -20.03,4.83 -39.72,1.13 -57.11,-9.85 -5.19,-3.28 -9.96,-7.14 -14.35,-11.4 -0.03,0.03 -0.07,0.06 -0.1,0.09 -14.44,13.65 -32.06,23.78 -52.44,23.78 -18.73,0 -36.13,-5.95 -49.89,-18.7 -12.92,-11.32 -22.08,-25.63 -25.54,-42.57 -3.24,-15.87 -1.48,-32.3 2.81,-47.79 0.87,-3.13 1.82,-6.25 2.85,-9.35 -5.93,0.19 -11.86,-0.76 -17.54,-3.05 0.96,2.32 1.77,4.73 2.41,7.22 2.48,9.56 2.85,19.48 1.67,29.26 -1.16,9.6 -3.7,19.02 -8.38,27.53 -7.47,13.58 -16.64,26.1 -27.14,37.49 -9.93,10.78 -20.72,20.77 -32.34,29.71l-0.39 0.3 -0.4 0.29c-23.46,16.94 -49.18,30.12 -76.46,39.7 -28.69,10.07 -58.47,14.24 -88.79,12.02 -25.8,-1.89 -50.44,-8.84 -73.5,-20.59 -25.1,-12.8 -44.99,-31.72 -59.09,-56.12 -9.04,-15.63 -15.3,-32.48 -18.65,-50.22 -3.11,-16.45 -4.35,-33.15 -3.68,-49.88 0.67,-16.72 3.14,-33.28 7.25,-49.5 3.97,-15.67 9.22,-30.99 15.78,-45.44 12.06,-27.88 27.94,-54.03 47.3,-77.81 19.09,-23.45 40.81,-44.44 64.9,-62.72l0.47 -0.35c10.91,-7.97 22.13,-15.51 33.57,-22.69 12.85,-8.06 26.43,-14.92 40.56,-20.44 14.07,-5.49 28.62,-9.62 43.49,-12.28 16.22,-2.91 32.79,-3.16 49.09,-0.72 16.33,2.44 31.87,7.79 46.03,16.33 13.65,8.24 25.39,18.92 34.38,32.13 9.17,13.46 14.65,28.62 16.57,44.8 2.06,17.31 -0.63,34.54 -6.65,50.84 -6.07,16.45 -15.37,31.27 -26.89,44.44 -10.9,12.46 -23.08,23.7 -36.29,33.66 -13.2,9.96 -27.32,18.62 -42.2,25.84 -13.85,6.72 -28.31,12.41 -43.25,16.23 -9.37,2.4 -19.01,2.59 -28.48,0.62 -9.5,-1.98 -18.26,-6.05 -25.87,-12.06 -7.41,-5.85 -13.33,-13.17 -17.56,-21.61 -4.42,-8.84 -6.59,-18.46 -6.59,-28.34 0,-12.75 3.67,-24.88 11.26,-35.15 5.51,-7.45 12.24,-13.81 19.9,-19.02 7.17,-4.88 14.94,-8.75 23.13,-11.58 5.68,-1.96 11.36,-3.9 17.12,-5.59 10.81,-3.18 21.73,-7.19 31.62,-12.65 5.54,-3.06 10.46,-6.85 14.83,-11.29 -5.03,-0.02 -10.03,0.52 -14.95,1.58 -6.35,1.36 -12.57,3.26 -18.62,5.61 -6.11,2.39 -12.16,5.05 -17.96,8.13l-0.69 0.35c-18.7,9.35 -35.72,21.38 -50.99,35.67 -15.6,14.61 -29.46,30.91 -40.93,48.96 -7.6,11.96 -13.65,25.52 -18.85,38.67 -5.71,14.44 -9.69,29.43 -11.65,44.84 -1.67,13.07 -1.29,26.2 1.87,39.03 2.09,8.47 6.36,14.51 13.5,19.51 5.62,3.93 11.73,7.09 18.38,8.85 7.34,1.94 14.83,2.91 22.43,2.91 8.17,0 16.28,-1.01 24.24,-2.86 9.17,-2.13 18.23,-4.7 27.13,-7.76 11.32,-4.24 22.05,-9.87 32.15,-16.5 9.37,-6.15 17.99,-13.36 25.36,-21.82 1.61,-2.13 3.06,-4.37 4.38,-6.68 2.13,-3.72 4.23,-7.46 6.3,-11.21 2.92,-5.31 6.25,-10.38 9.97,-15.16 5.63,-7.24 12.69,-13.07 20.59,-17.02 14.41,-7.59 31.02,-10.27 46.28,-2.67 -0.81,-2.56 -1.38,-5.23 -1.7,-7.99 -1.47,-12.48 2.88,-23.95 9.49,-34.29 5.25,-8.21 10.11,-16.69 14.73,-25.26 4.93,-9.15 9.51,-18.49 13.73,-27.99 3.93,-8.85 7.48,-17.89 10.49,-27.09 2.2,-6.74 4.24,-13.89 5.3,-20.91 2.16,-14.39 8.32,-27.5 19.38,-37.18 10.63,-9.3 23.72,-14.6 37.98,-13.41 16.2,1.35 29.32,10.91 36.96,25.1 1.81,3.37 3.17,6.85 4.11,10.4 1.15,0.34 2.29,0.7 3.43,1.07 15.69,5.11 28.59,14.94 38.17,28.35l0.39 0.55 0.37 0.56c6.09,9.32 9.87,19.41 11.64,29.92 1.25,-2.23 2.72,-4.93 3.66,-7.23 1.08,-12.68 6.34,-24.3 15.43,-33.5 4.81,-4.87 10.29,-8.7 16.26,-11.39zm-287.66 13.33c7.98,-9.89 11.5,-18.54 10.55,-25.94 -0.95,-7.41 -6.18,-13.21 -15.68,-17.39 -7.22,-3.04 -14.83,-4.65 -22.81,-4.85 -7.98,-0.19 -15.97,0.57 -23.95,2.28 -7.98,1.71 -15.87,4.09 -23.66,7.13 -7.79,3.04 -14.92,6.27 -21.38,9.69 -21.29,10.64 -40.86,24.33 -58.73,41.06 -17.87,16.72 -33.26,35.16 -46.19,55.31 -7.61,12.17 -14.83,26.89 -21.67,44.19 -6.84,17.3 -11.41,34.88 -13.69,52.74 -2.28,17.87 -1.43,34.88 2.57,51.03 3.99,16.16 12.83,28.99 26.51,38.49 9.12,6.46 18.72,11.02 28.8,13.69 10.07,2.66 20.34,3.99 30.79,3.99 10.45,0 21,-1.23 31.65,-3.7 10.64,-2.47 20.91,-5.42 30.79,-8.84 13.3,-4.94 26.32,-11.59 39.06,-19.96 12.73,-8.36 23.66,-17.87 32.78,-28.51 2.66,-3.43 5.13,-7.13 7.41,-11.12 2.28,-3.99 4.47,-7.89 6.56,-11.69 2.09,-3.8 4.46,-7.41 7.13,-10.83 2.66,-3.42 5.89,-6.08 9.69,-7.98 7.22,-3.8 12.93,-4.56 17.11,-2.28 4.18,2.28 6.94,5.99 8.27,11.12 1.33,5.13 1.61,10.83 0.85,17.11 -0.76,6.27 -2.28,11.5 -4.56,15.68 -6.08,11.02 -13.59,21.38 -22.52,31.07 -8.93,9.69 -18.34,18.34 -28.22,25.94 -20.53,14.82 -43.24,26.61 -68.14,35.35 -24.9,8.74 -50.08,12.17 -75.55,10.26 -21.29,-1.52 -41.63,-7.22 -61.01,-17.1 -19.39,-9.88 -34.59,-24.33 -45.62,-43.33 -7.22,-12.54 -12.16,-25.85 -14.82,-39.91 -2.66,-14.07 -3.7,-28.22 -3.13,-42.48 0.57,-14.26 2.66,-28.51 6.27,-42.76 3.61,-14.26 8.27,-27.65 13.97,-40.2 11.02,-25.47 25.28,-48.94 42.76,-70.42 17.49,-21.48 37.25,-40.58 59.3,-57.3 9.89,-7.22 20.43,-14.35 31.65,-21.39 11.22,-7.03 22.91,-12.93 35.07,-17.68 12.16,-4.75 24.61,-8.26 37.35,-10.55 12.73,-2.28 25.56,-2.47 38.49,-0.57 12.54,1.9 23.85,5.89 33.93,11.98 10.07,6.08 18.15,13.59 24.24,22.52 6.08,8.94 9.79,19.01 11.11,30.22 1.33,11.21 -0.28,23.09 -4.84,35.63 -4.56,12.17 -11.5,23.57 -20.81,34.21 -9.31,10.65 -19.77,20.34 -31.36,29.08 -11.59,8.74 -23.85,16.25 -36.78,22.53 -12.93,6.27 -25.28,10.93 -37.06,13.96 -4.56,1.14 -9.12,1.24 -13.69,0.29 -4.56,-0.95 -8.65,-2.85 -12.26,-5.7 -3.61,-2.85 -6.46,-6.37 -8.55,-10.55 -2.09,-4.19 -3.13,-8.74 -3.13,-13.69 0,-6.08 1.61,-11.31 4.85,-15.68 3.23,-4.37 7.22,-8.17 11.97,-11.41 4.75,-3.23 9.88,-5.8 15.39,-7.7 5.52,-1.9 10.74,-3.61 15.68,-5.13 14.44,-4.18 27.18,-9.31 38.2,-15.39 11.03,-6.08 20.72,-14.26 29.08,-24.52zm83.25 112.33c5.32,-8.37 10.64,-17.49 15.96,-27.37 5.32,-9.88 10.26,-19.96 14.82,-30.22 4.56,-10.26 8.46,-20.33 11.69,-30.22 3.23,-9.88 5.41,-18.63 6.56,-26.23 1.14,-7.6 3.99,-13.4 8.55,-17.39 4.56,-3.99 9.12,-5.8 13.69,-5.42 4.56,0.38 8.17,3.04 10.83,7.98 2.66,4.94 2.66,12.35 0,22.24 8.74,0.38 17.48,1.99 26.23,4.85 8.74,2.85 15.96,8.27 21.67,16.25 6.46,9.89 8.74,21.76 6.84,35.64 -1.9,13.87 -8.36,30.13 -19.39,48.75 -11.4,19.01 -20.24,34.12 -26.51,45.33 -6.27,11.21 -10.74,21.57 -13.4,31.07 -1.9,6.46 -2.94,11.31 -3.13,14.54 -0.19,3.23 0.09,5.23 0.85,5.99 1.14,0 3.8,-0.85 7.98,-2.57 4.18,-1.71 9.98,-5.8 17.39,-12.26 7.41,-6.46 16.44,-16.06 27.08,-28.8 10.65,-12.73 22.81,-30.12 36.49,-52.17 3.43,-5.32 7.04,-8.84 10.83,-10.55 3.8,-1.71 7.13,-2 9.98,-0.86 2.85,1.14 4.56,3.42 5.13,6.84 0.57,3.42 -0.85,7.79 -4.28,13.11 -6.08,9.88 -13.49,22.24 -22.24,37.06 -8.74,14.82 -18.06,29.08 -27.94,42.76 -9.88,13.69 -20.05,25.47 -30.5,35.35 -10.45,9.88 -20.43,14.82 -29.94,14.82 -11.4,0 -20.72,-3.42 -27.94,-10.26 -8.36,-7.22 -13.49,-15.49 -15.39,-24.8 -1.9,-9.31 -1.14,-20.15 2.28,-32.5 3.42,-12.35 9.12,-26.32 17.11,-41.91 7.98,-15.59 17.68,-33.07 29.08,-52.46 7.98,-13.3 12.35,-22.81 13.11,-28.51 0.76,-5.7 1.14,-8.74 1.14,-9.12 -0.76,-0.76 -3.33,-1.61 -7.7,-2.57 -4.37,-0.95 -12.64,-0.47 -24.8,1.43 -3.8,7.22 -7.79,14.64 -11.97,22.24 -4.18,7.6 -8.17,14.73 -11.98,21.38 -3.8,6.65 -7.31,12.64 -10.55,17.96 -3.23,5.32 -5.8,9.12 -7.7,11.41 -3.04,4.18 -6.46,6.93 -10.26,8.27 -3.8,1.33 -7.04,1.42 -9.69,0.28 -2.66,-1.14 -4.19,-3.33 -4.56,-6.56 -0.38,-3.23 1.14,-7.51 4.56,-12.83zm159.65 131.14c-4.18,-2.66 -8.27,-6.17 -12.26,-10.55 -3.99,-4.37 -7.13,-9.79 -9.41,-16.25 -2.28,-6.46 -3.32,-14.16 -3.13,-23.09 0.19,-8.93 2.19,-19.29 5.99,-31.07 4.18,-12.93 10.07,-26.23 17.68,-39.91 7.6,-13.69 15.02,-26.8 22.24,-39.35 5.32,-8.36 10.65,-17.3 15.96,-26.8 5.32,-9.5 8.17,-16.15 8.56,-19.96 0,-6.08 2.09,-11.21 6.18,-15.39 4.18,-4.18 9.03,-6.27 14.63,-6.27 5.99,0 11.12,2 15.2,5.99 4.09,3.99 6.37,9.03 6.75,15.11 0,8.36 -2.66,17.87 -7.89,28.51 -5.22,10.65 -12.73,24.33 -22.52,41.06 -4.46,7.98 -9.79,17.2 -15.78,27.65 -6.08,10.45 -11.31,20.62 -15.68,30.51 -4.37,9.88 -7.22,18.91 -8.56,27.08 -1.33,8.17 0.29,13.59 4.85,16.25 0.76,0.38 2.19,0.57 4.28,0.57 2.09,0 4.85,-0.76 8.27,-2.28 3.43,-1.52 7.7,-3.99 12.74,-7.41 5.13,-3.42 11.02,-8.17 17.77,-14.26 6.75,-6.08 13.3,-12.64 19.77,-19.67 6.37,-7.03 12.35,-13.87 17.86,-20.53 5.52,-6.65 10.36,-12.64 14.54,-17.96 4.18,-5.32 7.41,-9.7 9.69,-13.11 3.42,-4.56 6.94,-7.41 10.55,-8.56 3.61,-1.14 6.75,-1.04 9.41,0.29 2.66,1.33 4.28,3.7 4.85,7.13 0.57,3.42 -0.85,7.41 -4.28,11.98 -1.9,2.28 -5.32,7.79 -10.26,16.54 -4.94,8.74 -11.21,18.63 -18.81,29.65 -7.61,11.02 -16.16,22.33 -25.57,33.93 -9.5,11.59 -19.39,21.48 -29.74,29.65 -10.26,8.17 -20.91,13.59 -31.93,16.25 -11.02,2.66 -21.67,0.76 -31.93,-5.7zm127.72 -277.11c0,7.6 -2.57,13.97 -7.7,19.1 -5.13,5.13 -11.5,7.7 -19.1,7.7 -7.6,0 -13.97,-2.57 -19.1,-7.7 -5.13,-5.13 -7.7,-11.5 -7.7,-19.1 0,-7.6 2.57,-13.97 7.7,-19.1 5.13,-5.13 11.5,-7.7 19.1,-7.7 7.6,0 13.97,2.57 19.1,7.7 5.13,5.13 7.7,11.5 7.7,19.1zm3.99 283.96c-5.7,-1.52 -10.17,-4.75 -13.4,-9.7 -3.23,-4.94 -4.09,-10.26 -2.57,-15.96 1.9,-8.36 5.98,-17.01 12.26,-25.94 6.28,-8.93 14.07,-18.24 23.38,-27.94 9.31,-9.69 19.86,-19.67 31.65,-29.93 11.78,-10.26 24.14,-20.91 37.06,-31.93 3.42,-3.04 8.17,-6.94 14.25,-11.69 6.08,-4.75 12.45,-9.79 19.1,-15.11 6.65,-5.32 12.93,-10.45 18.81,-15.4 5.89,-4.94 10.55,-8.93 13.97,-11.97 -14.06,4.56 -26.52,7.7 -37.35,9.41 -10.83,1.71 -20.24,2.28 -28.22,1.71 -7.98,-0.57 -14.45,-1.9 -19.39,-3.99 -4.94,-2.09 -8.36,-4.66 -10.26,-7.7l-37.63 62.72c-3.04,4.56 -6.46,7.79 -10.26,9.69 -3.8,1.9 -7.31,2.57 -10.55,2 -3.23,-0.57 -5.41,-2.28 -6.56,-5.13 -1.14,-2.85 -0.19,-6.56 2.85,-11.12 9.5,-14.83 17.58,-28.7 24.23,-41.63 6.65,-12.92 12.74,-24.33 18.25,-34.21 5.51,-9.88 10.93,-17.96 16.25,-24.23 5.32,-6.27 11.22,-10.17 17.68,-11.69 7.98,-1.9 14.44,-1.33 19.39,1.71 4.94,3.04 7.98,7.22 9.12,12.54 0.76,1.52 4.47,3.99 11.12,7.41 6.66,3.43 13.4,5.7 20.24,6.85 2.66,0.38 5.99,0.57 9.98,0.57 3.99,0 8.36,-0.67 13.11,-2 4.75,-1.33 9.79,-3.61 15.11,-6.84 5.32,-3.23 10.64,-7.89 15.96,-13.97 4.94,-5.7 10.36,-8.65 16.25,-8.83 5.89,-0.19 11.11,1.43 15.68,4.84 4.56,3.43 7.61,8.18 9.13,14.26 1.52,6.08 0.38,12.55 -3.42,19.39 -9.89,16.73 -22.24,32.41 -37.06,47.04 -14.83,14.63 -30.41,28.04 -46.76,40.2 -16.35,12.17 -32.22,23.09 -47.61,32.79 -15.39,9.69 -28.41,17.77 -39.06,24.23 6.84,-0.76 13.68,-0.38 20.52,1.14 6.85,1.52 13.5,4.37 19.96,8.55 5.32,3.8 10.83,6.85 16.54,9.13 5.7,2.28 10.83,3.42 15.39,3.42 12.16,0 26.99,-7.98 44.48,-23.94 17.48,-15.96 35.35,-38.2 53.6,-66.71 2.66,-4.18 5.89,-6.94 9.69,-8.27 3.8,-1.33 7.03,-1.43 9.69,-0.29 2.66,1.14 4.37,3.23 5.13,6.28 0.76,3.04 -0.19,6.65 -2.85,10.83 -11.78,18.25 -22.71,35.07 -32.78,50.46 -10.07,15.39 -19.86,28.6 -29.37,39.63 -9.5,11.02 -18.91,19.58 -28.22,25.66 -9.31,6.08 -19.1,9.13 -29.37,9.13 -10.26,0 -19.77,-2 -28.51,-5.99 -8.74,-3.99 -16.91,-8.08 -24.52,-12.26 -5.7,-3.04 -11.31,-5.89 -16.82,-8.55 -5.51,-2.66 -10.17,-3.61 -13.97,-2.85 -1.52,0.76 -3.99,2.66 -7.41,5.7 -3.42,3.04 -7.41,8.93 -11.97,17.68 -2.28,4.18 -5.8,7.41 -10.55,9.69 -4.75,2.28 -9.22,2.66 -13.4,1.14zm263.43 -2.28c-14.82,0 -27.75,-4.75 -38.77,-14.25 -23.95,-19.39 -28.13,-49.99 -12.54,-91.8 6.08,-15.59 14.06,-31.93 23.95,-49.04 9.88,-17.11 20.52,-34.97 31.93,-53.6 13.31,-22.43 26.23,-44.66 38.78,-66.71 12.54,-22.05 21.29,-42.57 26.22,-61.58 1.52,-5.7 4.85,-10.17 9.98,-13.4 5.13,-3.23 10.55,-3.9 16.25,-2 5.7,1.52 10.07,4.75 13.11,9.69 3.04,4.94 3.8,10.27 2.28,15.97 -5.7,22.43 -15.2,45.52 -28.51,69.28 -13.31,23.76 -27.18,47.43 -41.63,70.99 -8.36,13.69 -16.82,27.75 -25.37,42.19 -8.56,14.44 -15.78,28.22 -21.67,41.34 -5.89,13.11 -9.69,24.61 -11.41,34.5 -1.71,9.89 0.09,17.11 5.42,21.67 1.9,1.14 5.04,2.47 9.41,3.99 4.37,1.52 11.31,-0.19 20.81,-5.13 10.26,-5.32 20.72,-13.3 31.36,-23.94 10.64,-10.65 20.33,-23.19 29.08,-37.63 8.74,-14.44 15.4,-28.41 19.96,-41.91 4.56,-13.5 6.46,-25.19 5.7,-35.07 0,-1.14 -0.09,-2.19 -0.28,-3.14 -0.19,-0.95 -0.29,-1.8 -0.29,-2.57 -4.56,-3.42 -8.74,-7.03 -12.54,-10.83 -3.8,-3.8 -7.22,-7.79 -10.26,-11.98 -2.66,-3.8 -3.99,-7.98 -3.99,-12.54 0,-4.56 1.52,-8.74 4.56,-12.54 3.04,-3.8 6.75,-6.37 11.12,-7.7 4.37,-1.33 8.84,-1.24 13.4,0.28 14.82,5.7 25.66,14.83 32.5,27.37 7.22,4.56 15.39,8.46 24.52,11.69 9.13,3.23 18.34,5.42 27.66,6.56 9.31,1.14 18.44,0.95 27.37,-0.57 8.93,-1.52 16.82,-4.56 23.66,-9.12 3.8,-2.66 7.13,-3.61 9.98,-2.85 2.85,0.76 4.85,2.47 5.99,5.13 1.14,2.66 1.33,5.7 0.57,9.12 -0.76,3.42 -2.85,6.46 -6.27,9.12 -7.22,5.7 -15.96,10.07 -26.23,13.12 -10.26,3.04 -20.62,5.13 -31.07,6.27 -10.45,1.14 -20.24,1.42 -29.37,0.85 -9.12,-0.57 -15.96,-1.8 -20.53,-3.7 -1.14,15.59 -4.94,31.65 -11.41,48.18 -6.46,16.54 -14.63,32.41 -24.52,47.61 -9.89,15.2 -20.91,28.89 -33.07,41.06 -12.17,12.16 -24.71,21.47 -37.63,27.94 -12.54,6.46 -25.28,9.69 -38.2,9.69zm230.36 3.42c-22.05,0 -38.77,-5.13 -50.18,-15.39 -10.26,-9.5 -16.82,-20.53 -19.67,-33.07 -2.85,-12.54 -3.14,-25.75 -0.86,-39.63 2.28,-13.87 6.46,-27.65 12.54,-41.34 6.08,-13.69 13.11,-26.42 21.1,-38.2 9.5,-14.44 20.43,-27.84 32.79,-40.2 12.35,-12.35 25.19,-22.43 38.49,-30.22 13.3,-7.8 26.51,-12.55 39.63,-14.26 13.12,-1.71 25.37,0.67 36.78,7.13 9.5,5.32 16.54,12.64 21.1,21.95 4.56,9.31 6.08,19.67 4.56,31.08 -0.76,9.12 -3.23,18.06 -7.42,26.8 -4.18,8.74 -9.41,16.92 -15.68,24.52 -6.27,7.6 -13.59,14.26 -21.95,19.96 -8.37,5.7 -17.3,10.07 -26.8,13.11 -4.18,1.14 -9.22,2.19 -15.11,3.14 -5.89,0.95 -12.26,1.14 -19.1,0.57 -6.84,-0.57 -13.97,-2.28 -21.38,-5.13 -7.41,-2.85 -15.11,-7.13 -23.09,-12.83 -3.8,7.6 -6.94,15.11 -9.41,22.52 -2.47,7.41 -4.09,14.35 -4.85,20.81 -0.76,6.46 -0.57,12.45 0.57,17.96 1.14,5.51 3.42,9.98 6.85,13.4 7.98,7.98 19.19,11.12 33.64,9.41 14.44,-1.71 30.03,-7.03 46.76,-15.96 16.73,-8.93 33.64,-20.81 50.75,-35.64 17.11,-14.83 32.5,-31.36 46.19,-49.61 3.43,-4.94 7.13,-8.08 11.12,-9.41 3.99,-1.33 7.22,-1.33 9.7,0 2.47,1.33 3.89,3.8 4.28,7.41 0.38,3.61 -1.33,7.89 -5.13,12.83 -28.13,38.39 -56.16,68.7 -84.1,90.94 -27.94,22.24 -54.07,34.5 -78.4,36.78 -2.28,0.38 -4.56,0.57 -6.84,0.57 -2.28,0 -4.56,0 -6.84,0zm9.13 -158.51c12.92,11.02 26.98,14.25 42.19,9.69 9.12,-2.66 17.11,-7.31 23.95,-13.97 6.84,-6.65 12.26,-13.59 16.25,-20.81 3.99,-7.22 6.28,-13.87 6.84,-19.96 0.57,-6.08 -1.04,-10.26 -4.85,-12.54 -3.42,-2.28 -8.46,-2.47 -15.11,-0.57 -6.65,1.9 -13.97,5.42 -21.95,10.55 -7.98,5.13 -16.15,11.78 -24.52,19.96 -8.37,8.17 -15.97,17.39 -22.81,27.66zm-169.06 -16.6c-0.48,0.78 -0.95,1.56 -1.43,2.34 -8.49,13.86 -16.85,27.8 -25.13,41.78 -6.27,10.59 -12.18,21.44 -17.44,32.58 0,-0 0.01,-0.01 0.02,-0.02 9.38,-9.37 17.36,-20.1 24.22,-31.43 6.76,-11.16 12.76,-23.05 16.95,-35.43 0.98,-2.9 2.02,-6.31 2.81,-9.81zm178.95 102.61c-5.02,-0.86 -9.97,-2.08 -14.83,-3.62 -0.06,0.42 -0.11,0.84 -0.17,1.26 -0.17,1.47 -0.28,3.04 -0.22,4.6 1.73,0.11 3.91,-0.07 4.89,-0.19 3.44,-0.41 6.89,-1.11 10.32,-2.05z"/>
   <path class="fil1" d="M384.81 214.56c7.98,-9.89 11.5,-18.54 10.55,-25.94 -0.95,-7.41 -6.18,-13.21 -15.68,-17.39 -7.22,-3.04 -14.83,-4.65 -22.81,-4.85 -7.98,-0.19 -15.97,0.57 -23.95,2.28 -7.98,1.71 -15.87,4.09 -23.66,7.13 -7.79,3.04 -14.92,6.27 -21.38,9.69 -21.29,10.64 -40.86,24.33 -58.73,41.06 -17.87,16.72 -33.26,35.16 -46.19,55.31 -7.61,12.17 -14.83,26.89 -21.67,44.19 -6.84,17.3 -11.41,34.88 -13.69,52.74 -2.28,17.87 -1.43,34.88 2.57,51.03 3.99,16.16 12.83,28.99 26.51,38.49 9.12,6.46 18.72,11.02 28.8,13.69 10.07,2.66 20.34,3.99 30.79,3.99 10.45,0 21,-1.23 31.65,-3.7 10.64,-2.47 20.91,-5.42 30.79,-8.84 13.3,-4.94 26.32,-11.59 39.06,-19.96 12.73,-8.36 23.66,-17.87 32.78,-28.51 2.66,-3.43 5.13,-7.13 7.41,-11.12 2.28,-3.99 4.47,-7.89 6.56,-11.69 2.09,-3.8 4.46,-7.41 7.13,-10.83 2.66,-3.42 5.89,-6.08 9.69,-7.98 7.22,-3.8 12.93,-4.56 17.11,-2.28 4.18,2.28 6.94,5.99 8.27,11.12 1.33,5.13 1.61,10.83 0.85,17.11 -0.76,6.27 -2.28,11.5 -4.56,15.68 -6.08,11.02 -13.59,21.38 -22.52,31.07 -8.93,9.69 -18.34,18.34 -28.22,25.94 -20.53,14.82 -43.24,26.61 -68.14,35.35 -24.9,8.74 -50.08,12.17 -75.55,10.26 -21.29,-1.52 -41.63,-7.22 -61.01,-17.1 -19.39,-9.88 -34.59,-24.33 -45.62,-43.33 -7.22,-12.54 -12.16,-25.85 -14.82,-39.91 -2.66,-14.07 -3.7,-28.22 -3.13,-42.48 0.57,-14.26 2.66,-28.51 6.27,-42.76 3.61,-14.26 8.27,-27.65 13.97,-40.2 11.02,-25.47 25.28,-48.94 42.76,-70.42 17.49,-21.48 37.25,-40.58 59.3,-57.3 9.89,-7.22 20.43,-14.35 31.65,-21.39 11.22,-7.03 22.91,-12.93 35.07,-17.68 12.16,-4.75 24.61,-8.26 37.35,-10.55 12.73,-2.28 25.56,-2.47 38.49,-0.57 12.54,1.9 23.85,5.89 33.93,11.98 10.07,6.08 18.15,13.59 24.24,22.52 6.08,8.94 9.79,19.01 11.11,30.22 1.33,11.21 -0.28,23.09 -4.84,35.63 -4.56,12.17 -11.5,23.57 -20.81,34.21 -9.31,10.65 -19.77,20.34 -31.36,29.08 -11.59,8.74 -23.85,16.25 -36.78,22.53 -12.93,6.27 -25.28,10.93 -37.06,13.96 -4.56,1.14 -9.12,1.24 -13.69,0.29 -4.56,-0.95 -8.65,-2.85 -12.26,-5.7 -3.61,-2.85 -6.46,-6.37 -8.55,-10.55 -2.09,-4.19 -3.13,-8.74 -3.13,-13.69 0,-6.08 1.61,-11.31 4.85,-15.68 3.23,-4.37 7.22,-8.17 11.97,-11.41 4.75,-3.23 9.88,-5.8 15.39,-7.7 5.52,-1.9 10.74,-3.61 15.68,-5.13 14.44,-4.18 27.18,-9.31 38.2,-15.39 11.03,-6.08 20.72,-14.26 29.08,-24.52zm83.25 112.33c5.32,-8.37 10.64,-17.49 15.96,-27.37 5.32,-9.88 10.26,-19.96 14.82,-30.22 4.56,-10.26 8.46,-20.33 11.69,-30.22 3.23,-9.88 5.41,-18.63 6.56,-26.23 1.14,-7.6 3.99,-13.4 8.55,-17.39 4.56,-3.99 9.12,-5.8 13.69,-5.42 4.56,0.38 8.17,3.04 10.83,7.98 2.66,4.94 2.66,12.35 0,22.24 8.74,0.38 17.48,1.99 26.23,4.85 8.74,2.85 15.96,8.27 21.67,16.25 6.46,9.89 8.74,21.76 6.84,35.64 -1.9,13.87 -8.36,30.13 -19.39,48.75 -11.4,19.01 -20.24,34.12 -26.51,45.33 -6.27,11.21 -10.74,21.57 -13.4,31.07 -1.9,6.46 -2.94,11.31 -3.13,14.54 -0.19,3.23 0.09,5.23 0.85,5.99 1.14,0 3.8,-0.85 7.98,-2.57 4.18,-1.71 9.98,-5.8 17.39,-12.26 7.41,-6.46 16.44,-16.06 27.08,-28.8 10.65,-12.73 22.81,-30.12 36.49,-52.17 3.43,-5.32 7.04,-8.84 10.83,-10.55 3.8,-1.71 7.13,-2 9.98,-0.86 2.85,1.14 4.56,3.42 5.13,6.84 0.57,3.42 -0.85,7.79 -4.28,13.11 -6.08,9.88 -13.49,22.24 -22.24,37.06 -8.74,14.82 -18.06,29.08 -27.94,42.76 -9.88,13.69 -20.05,25.47 -30.5,35.35 -10.45,9.88 -20.43,14.82 -29.94,14.82 -11.4,0 -20.72,-3.42 -27.94,-10.26 -8.36,-7.22 -13.49,-15.49 -15.39,-24.8 -1.9,-9.31 -1.14,-20.15 2.28,-32.5 3.42,-12.35 9.12,-26.32 17.11,-41.91 7.98,-15.59 17.68,-33.07 29.08,-52.46 7.98,-13.3 12.35,-22.81 13.11,-28.51 0.76,-5.7 1.14,-8.74 1.14,-9.12 -0.76,-0.76 -3.33,-1.61 -7.7,-2.57 -4.37,-0.95 -12.64,-0.47 -24.8,1.43 -3.8,7.22 -7.79,14.64 -11.97,22.24 -4.18,7.6 -8.17,14.73 -11.98,21.38 -3.8,6.65 -7.31,12.64 -10.55,17.96 -3.23,5.32 -5.8,9.12 -7.7,11.41 -3.04,4.18 -6.46,6.93 -10.26,8.27 -3.8,1.33 -7.04,1.42 -9.69,0.28 -2.66,-1.14 -4.19,-3.33 -4.56,-6.56 -0.38,-3.23 1.14,-7.51 4.56,-12.83zm159.65 131.14c-4.18,-2.66 -8.27,-6.17 -12.26,-10.55 -3.99,-4.37 -7.13,-9.79 -9.41,-16.25 -2.28,-6.46 -3.32,-14.16 -3.13,-23.09 0.19,-8.93 2.19,-19.29 5.99,-31.07 4.18,-12.93 10.07,-26.23 17.68,-39.91 7.6,-13.69 15.02,-26.8 22.24,-39.35 5.32,-8.36 10.65,-17.3 15.96,-26.8 5.32,-9.5 8.17,-16.15 8.56,-19.96 0,-6.08 2.09,-11.21 6.18,-15.39 4.18,-4.18 9.03,-6.27 14.63,-6.27 5.99,0 11.12,2 15.2,5.99 4.09,3.99 6.37,9.03 6.75,15.11 0,8.36 -2.66,17.87 -7.89,28.51 -5.22,10.65 -12.73,24.33 -22.52,41.06 -4.46,7.98 -9.79,17.2 -15.78,27.65 -6.08,10.45 -11.31,20.62 -15.68,30.51 -4.37,9.88 -7.22,18.91 -8.56,27.08 -1.33,8.17 0.29,13.59 4.85,16.25 0.76,0.38 2.19,0.57 4.28,0.57 2.09,0 4.85,-0.76 8.27,-2.28 3.43,-1.52 7.7,-3.99 12.74,-7.41 5.13,-3.42 11.02,-8.17 17.77,-14.26 6.75,-6.08 13.3,-12.64 19.77,-19.67 6.37,-7.03 12.35,-13.87 17.86,-20.53 5.52,-6.65 10.36,-12.64 14.54,-17.96 4.18,-5.32 7.41,-9.7 9.69,-13.11 3.42,-4.56 6.94,-7.41 10.55,-8.56 3.61,-1.14 6.75,-1.04 9.41,0.29 2.66,1.33 4.28,3.7 4.85,7.13 0.57,3.42 -0.85,7.41 -4.28,11.98 -1.9,2.28 -5.32,7.79 -10.26,16.54 -4.94,8.74 -11.21,18.63 -18.81,29.65 -7.61,11.02 -16.16,22.33 -25.57,33.93 -9.5,11.59 -19.39,21.48 -29.74,29.65 -10.26,8.17 -20.91,13.59 -31.93,16.25 -11.02,2.66 -21.67,0.76 -31.93,-5.7zm127.72 -277.11c0,7.6 -2.57,13.97 -7.7,19.1 -5.13,5.13 -11.5,7.7 -19.1,7.7 -7.6,0 -13.97,-2.57 -19.1,-7.7 -5.13,-5.13 -7.7,-11.5 -7.7,-19.1 0,-7.6 2.57,-13.97 7.7,-19.1 5.13,-5.13 11.5,-7.7 19.1,-7.7 7.6,0 13.97,2.57 19.1,7.7 5.13,5.13 7.7,11.5 7.7,19.1zm3.99 283.96c-5.7,-1.52 -10.17,-4.75 -13.4,-9.7 -3.23,-4.94 -4.09,-10.26 -2.57,-15.96 1.9,-8.36 5.98,-17.01 12.26,-25.94 6.28,-8.93 14.07,-18.24 23.38,-27.94 9.31,-9.69 19.86,-19.67 31.65,-29.93 11.78,-10.26 24.14,-20.91 37.06,-31.93 3.42,-3.04 8.17,-6.94 14.25,-11.69 6.08,-4.75 12.45,-9.79 19.1,-15.11 6.65,-5.32 12.93,-10.45 18.81,-15.4 5.89,-4.94 10.55,-8.93 13.97,-11.97 -14.06,4.56 -26.52,7.7 -37.35,9.41 -10.83,1.71 -20.24,2.28 -28.22,1.71 -7.98,-0.57 -14.45,-1.9 -19.39,-3.99 -4.94,-2.09 -8.36,-4.66 -10.26,-7.7l-37.63 62.72c-3.04,4.56 -6.46,7.79 -10.26,9.69 -3.8,1.9 -7.31,2.57 -10.55,2 -3.23,-0.57 -5.41,-2.28 -6.56,-5.13 -1.14,-2.85 -0.19,-6.56 2.85,-11.12 9.5,-14.83 17.58,-28.7 24.23,-41.63 6.65,-12.92 12.74,-24.33 18.25,-34.21 5.51,-9.88 10.93,-17.96 16.25,-24.23 5.32,-6.27 11.22,-10.17 17.68,-11.69 7.98,-1.9 14.44,-1.33 19.39,1.71 4.94,3.04 7.98,7.22 9.12,12.54 0.76,1.52 4.47,3.99 11.12,7.41 6.66,3.43 13.4,5.7 20.24,6.85 2.66,0.38 5.99,0.57 9.98,0.57 3.99,0 8.36,-0.67 13.11,-2 4.75,-1.33 9.79,-3.61 15.11,-6.84 5.32,-3.23 10.64,-7.89 15.96,-13.97 4.94,-5.7 10.36,-8.65 16.25,-8.83 5.89,-0.19 11.11,1.43 15.68,4.84 4.56,3.43 7.61,8.18 9.13,14.26 1.52,6.08 0.38,12.55 -3.42,19.39 -9.89,16.73 -22.24,32.41 -37.06,47.04 -14.83,14.63 -30.41,28.04 -46.76,40.2 -16.35,12.17 -32.22,23.09 -47.61,32.79 -15.39,9.69 -28.41,17.77 -39.06,24.23 6.84,-0.76 13.68,-0.38 20.52,1.14 6.85,1.52 13.5,4.37 19.96,8.55 5.32,3.8 10.83,6.85 16.54,9.13 5.7,2.28 10.83,3.42 15.39,3.42 12.16,0 26.99,-7.98 44.48,-23.94 17.48,-15.96 35.35,-38.2 53.6,-66.71 2.66,-4.18 5.89,-6.94 9.69,-8.27 3.8,-1.33 7.03,-1.43 9.69,-0.29 2.66,1.14 4.37,3.23 5.13,6.28 0.76,3.04 -0.19,6.65 -2.85,10.83 -11.78,18.25 -22.71,35.07 -32.78,50.46 -10.07,15.39 -19.86,28.6 -29.37,39.63 -9.5,11.02 -18.91,19.58 -28.22,25.66 -9.31,6.08 -19.1,9.13 -29.37,9.13 -10.26,0 -19.77,-2 -28.51,-5.99 -8.74,-3.99 -16.91,-8.08 -24.52,-12.26 -5.7,-3.04 -11.31,-5.89 -16.82,-8.55 -5.51,-2.66 -10.17,-3.61 -13.97,-2.85 -1.52,0.76 -3.99,2.66 -7.41,5.7 -3.42,3.04 -7.41,8.93 -11.97,17.68 -2.28,4.18 -5.8,7.41 -10.55,9.69 -4.75,2.28 -9.22,2.66 -13.4,1.14zm263.43 -2.28c-14.82,0 -27.75,-4.75 -38.77,-14.25 -23.95,-19.39 -28.13,-49.99 -12.54,-91.8 6.08,-15.59 14.06,-31.93 23.95,-49.04 9.88,-17.11 20.52,-34.97 31.93,-53.6 13.31,-22.43 26.23,-44.66 38.78,-66.71 12.54,-22.05 21.29,-42.57 26.22,-61.58 1.52,-5.7 4.85,-10.17 9.98,-13.4 5.13,-3.23 10.55,-3.9 16.25,-2 5.7,1.52 10.07,4.75 13.11,9.69 3.04,4.94 3.8,10.27 2.28,15.97 -5.7,22.43 -15.2,45.52 -28.51,69.28 -13.31,23.76 -27.18,47.43 -41.63,70.99 -8.36,13.69 -16.82,27.75 -25.37,42.19 -8.56,14.44 -15.78,28.22 -21.67,41.34 -5.89,13.11 -9.69,24.61 -11.41,34.5 -1.71,9.89 0.09,17.11 5.42,21.67 1.9,1.14 5.04,2.47 9.41,3.99 4.37,1.52 11.31,-0.19 20.81,-5.13 10.26,-5.32 20.72,-13.3 31.36,-23.94 10.64,-10.65 20.33,-23.19 29.08,-37.63 8.74,-14.44 15.4,-28.41 19.96,-41.91 4.56,-13.5 6.46,-25.19 5.7,-35.07 0,-1.14 -0.09,-2.19 -0.28,-3.14 -0.19,-0.95 -0.29,-1.8 -0.29,-2.57 -4.56,-3.42 -8.74,-7.03 -12.54,-10.83 -3.8,-3.8 -7.22,-7.79 -10.26,-11.98 -2.66,-3.8 -3.99,-7.98 -3.99,-12.54 0,-4.56 1.52,-8.74 4.56,-12.54 3.04,-3.8 6.75,-6.37 11.12,-7.7 4.37,-1.33 8.84,-1.24 13.4,0.28 14.82,5.7 25.66,14.83 32.5,27.37 7.22,4.56 15.39,8.46 24.52,11.69 9.13,3.23 18.34,5.42 27.66,6.56 9.31,1.14 18.44,0.95 27.37,-0.57 8.93,-1.52 16.82,-4.56 23.66,-9.12 3.8,-2.66 7.13,-3.61 9.98,-2.85 2.85,0.76 4.85,2.47 5.99,5.13 1.14,2.66 1.33,5.7 0.57,9.12 -0.76,3.42 -2.85,6.46 -6.27,9.12 -7.22,5.7 -15.96,10.07 -26.23,13.12 -10.26,3.04 -20.62,5.13 -31.07,6.27 -10.45,1.14 -20.24,1.42 -29.37,0.85 -9.12,-0.57 -15.96,-1.8 -20.53,-3.7 -1.14,15.59 -4.94,31.65 -11.41,48.18 -6.46,16.54 -14.63,32.41 -24.52,47.61 -9.89,15.2 -20.91,28.89 -33.07,41.06 -12.17,12.16 -24.71,21.47 -37.63,27.94 -12.54,6.46 -25.28,9.69 -38.2,9.69zm230.36 3.42c-22.05,0 -38.77,-5.13 -50.18,-15.39 -10.26,-9.5 -16.82,-20.53 -19.67,-33.07 -2.85,-12.54 -3.14,-25.75 -0.86,-39.63 2.28,-13.87 6.46,-27.65 12.54,-41.34 6.08,-13.69 13.11,-26.42 21.1,-38.2 9.5,-14.44 20.43,-27.84 32.79,-40.2 12.35,-12.35 25.19,-22.43 38.49,-30.22 13.3,-7.8 26.51,-12.55 39.63,-14.26 13.12,-1.71 25.37,0.67 36.78,7.13 9.5,5.32 16.54,12.64 21.1,21.95 4.56,9.31 6.08,19.67 4.56,31.08 -0.76,9.12 -3.23,18.06 -7.42,26.8 -4.18,8.74 -9.41,16.92 -15.68,24.52 -6.27,7.6 -13.59,14.26 -21.95,19.96 -8.37,5.7 -17.3,10.07 -26.8,13.11 -4.18,1.14 -9.22,2.19 -15.11,3.14 -5.89,0.95 -12.26,1.14 -19.1,0.57 -6.84,-0.57 -13.97,-2.28 -21.38,-5.13 -7.41,-2.85 -15.11,-7.13 -23.09,-12.83 -3.8,7.6 -6.94,15.11 -9.41,22.52 -2.47,7.41 -4.09,14.35 -4.85,20.81 -0.76,6.46 -0.57,12.45 0.57,17.96 1.14,5.51 3.42,9.98 6.85,13.4 7.98,7.98 19.19,11.12 33.64,9.41 14.44,-1.71 30.03,-7.03 46.76,-15.96 16.73,-8.93 33.64,-20.81 50.75,-35.64 17.11,-14.83 32.5,-31.36 46.19,-49.61 3.43,-4.94 7.13,-8.08 11.12,-9.41 3.99,-1.33 7.22,-1.33 9.7,0 2.47,1.33 3.89,3.8 4.28,7.41 0.38,3.61 -1.33,7.89 -5.13,12.83 -28.13,38.39 -56.16,68.7 -84.1,90.94 -27.94,22.24 -54.07,34.5 -78.4,36.78 -2.28,0.38 -4.56,0.57 -6.84,0.57 -2.28,0 -4.56,0 -6.84,0zm9.13 -158.51c12.92,11.02 26.98,14.25 42.19,9.69 9.12,-2.66 17.11,-7.31 23.95,-13.97 6.84,-6.65 12.26,-13.59 16.25,-20.81 3.99,-7.22 6.28,-13.87 6.84,-19.96 0.57,-6.08 -1.04,-10.26 -4.85,-12.54 -3.42,-2.28 -8.46,-2.47 -15.11,-0.57 -6.65,1.9 -13.97,5.42 -21.95,10.55 -7.98,5.13 -16.15,11.78 -24.52,19.96 -8.37,8.17 -15.97,17.39 -22.81,27.66z"/>
  </g>
 </g>
</svg>
